%FSTAX23Y23*%
%MOIN*%
%SFA1B1*%

%IPPOS*%
%AMD40*
1,1,0.120000,0.000000,0.000000*
1,0,0.100000,0.000000,0.000000*
4,0,4,0.035400,0.049500,-0.049500,-0.035400,-0.035400,-0.049500,0.049500,0.035400,0.035400,0.049500,0.0*
4,0,4,-0.035400,0.049500,0.049500,-0.035400,0.035400,-0.049500,-0.049500,0.035400,-0.035400,0.049500,0.0*
%
%AMD41*
1,1,0.095433,0.000000,0.000000*
1,0,0.075433,0.000000,0.000000*
4,0,4,0.026700,0.040800,-0.040800,-0.026700,-0.026700,-0.040800,0.040800,0.026700,0.026700,0.040800,0.0*
4,0,4,-0.026700,0.040800,0.040800,-0.026700,0.026700,-0.040800,-0.040800,0.026700,-0.026700,0.040800,0.0*
%
%AMD43*
1,1,0.072000,0.000000,0.000000*
1,0,0.052000,0.000000,0.000000*
4,0,4,0.018400,0.032500,-0.032500,-0.018400,-0.018400,-0.032500,0.032500,0.018400,0.018400,0.032500,0.0*
4,0,4,-0.018400,0.032500,0.032500,-0.018400,0.018400,-0.032500,-0.032500,0.018400,-0.018400,0.032500,0.0*
%
%ADD32C,0.060000*%
%ADD33C,0.100000*%
%ADD38C,0.040000*%
%ADD39C,0.080000*%
G04~CAMADD=40~12~0.0~0.0~0.0~0.0~0.0~0.0~0~1200.0~1000.0~0.0~45.0~4~200.0~0.0~0.0~0.0~0~0.0~0.0~0.0~0.0~1200.0~1200.0*
%ADD40D40*%
G04~CAMADD=41~12~0.0~0.0~0.0~0.0~0.0~0.0~0~954.3~754.3~0.0~45.0~4~200.0~0.0~0.0~0.0~0~0.0~0.0~0.0~0.0~954.3~954.3*
%ADD41D41*%
%ADD42C,0.075430*%
G04~CAMADD=43~12~0.0~0.0~0.0~0.0~0.0~0.0~0~720.0~520.0~0.0~45.0~4~200.0~0.0~0.0~0.0~0~0.0~0.0~0.0~0.0~720.0~720.0*
%ADD43D43*%
%ADD44C,0.052000*%
%LNinner_1-1*%
%LPD*%
G54D32*
X0221Y0142D03*
Y0152D03*
G54D33*
X024Y005D03*
Y002D03*
X004Y005D03*
Y002D03*
X001Y005D03*
Y002D03*
G54D38*
X0Y0D02*
X001D01*
Y-003D02*
Y0D01*
Y-003D02*
X004D01*
Y0*
X025*
Y01835*
Y02*
X0007D02*
X025D01*
X0D02*
X0007D01*
X0Y0D02*
Y02D01*
G54D39*
X006Y004D03*
X007Y003D03*
X008D03*
X009D03*
X01D03*
X011D03*
X012D03*
X013D03*
X014D03*
X015D03*
X016D03*
X017D03*
X018D03*
X019D03*
X006D03*
X007Y004D03*
X008D03*
X009D03*
X01D03*
X011D03*
X012D03*
X013D03*
X014D03*
X015D03*
X019D03*
X017D03*
X016D03*
X018D03*
G54D40*
X021Y005D03*
Y002D03*
G54D41*
X0012Y0193D03*
G54D42*
X0012Y0183D03*
Y0173D03*
Y0163D03*
Y0153D03*
G54D43*
X01535Y0195D03*
X0092Y00835D03*
X0073Y011D03*
X00075Y0094D03*
X00235D03*
X00395D03*
X00555D03*
X01295Y0066D03*
X0077Y0057D03*
X0059D03*
X00948Y0185D03*
X00907Y00542D03*
X0176Y0066D03*
X0059Y0129D03*
X01185Y00965D03*
X0205Y0166D03*
Y01755D03*
X0117Y0195D03*
X0079Y0162D03*
X0155Y0115D03*
G54D44*
X01635Y01945D03*
X01026Y01086D03*
X01015Y0119D03*
X0089Y00765D03*
X00991Y01246D03*
X011Y012D03*
X01405Y01375D03*
X01737Y01427D03*
X0125Y00225D03*
X0115D03*
X01675Y01409D03*
X00385Y01535D03*
X00311D03*
X0115Y00606D03*
X003Y0081D03*
X00268D03*
X00204D03*
X00236D03*
X0093Y012D03*
X0085Y00946D03*
X0093Y0062D03*
X0186Y00625D03*
X01365D03*
X0151Y00475D03*
X01075Y00485D03*
X01097Y00597D03*
X01122Y00637D03*
X0059Y0123D03*
X00475Y00825D03*
X00685Y00785D03*
X00785Y01435D03*
X0076Y01468D03*
X0041Y01675D03*
X00985Y0153D03*
X00885Y0185D03*
X00411Y01761D03*
X00613D03*
X007Y01535D03*
Y01575D03*
X0121Y01425D03*
Y01375D03*
X0125Y00965D03*
X01295Y00825D03*
X0176D03*
X0138Y0069D03*
X0119Y0123D03*
X01225Y015D03*
X0077Y0075D03*
X0073Y01505D03*
X01125Y0123D03*
X01195Y0085D03*
X01145Y00895D03*
X01122Y00822D03*
X01075Y01505D03*
X0112Y01495D03*
X00825Y0183D03*
X0059Y00825D03*
X01542Y01212D03*
X0092Y01405D03*
X0123Y01255D03*
X00925Y01445D03*
X0119Y01285D03*
X01595Y01585D03*
X0152Y0162D03*
X01348Y01706D03*
M02*