%FSTAX23Y23*%
%MOIN*%
%SFA1B1*%

%IPPOS*%
%ADD29C,0.010000*%
%ADD70C,0.003330*%
%ADD71C,0.015000*%
%ADD72C,0.016000*%
%LNnc_drill-1*%
%LPD*%
G54D29*
X02525Y0301D02*
Y03069D01*
X02555*
X02565Y03059*
Y03039*
X02555Y03029*
X02525*
X02545D02*
X02565Y0301D01*
X02595D02*
X02615D01*
X02625Y0302*
Y03039*
X02615Y03049*
X02595*
X02585Y03039*
Y0302*
X02595Y0301*
X02645Y03049D02*
Y0302D01*
X02655Y0301*
X02685*
Y03049*
X02705Y0301D02*
Y03049D01*
X02735*
X02745Y03039*
Y0301*
X02805Y03069D02*
Y0301D01*
X02775*
X02765Y0302*
Y03039*
X02775Y03049*
X02805*
X02525Y0286D02*
Y02919D01*
X02555*
X02565Y02909*
Y02889*
X02555Y02879*
X02525*
X02545D02*
X02565Y0286D01*
X02595D02*
X02615D01*
X02625Y0287*
Y02889*
X02615Y02899*
X02595*
X02585Y02889*
Y0287*
X02595Y0286*
X02645Y02899D02*
Y0287D01*
X02655Y0286*
X02685*
Y02899*
X02705Y0286D02*
Y02899D01*
X02735*
X02745Y02889*
Y0286*
X02805Y02919D02*
Y0286D01*
X02775*
X02765Y0287*
Y02889*
X02775Y02899*
X02805*
X02525Y0271D02*
Y02769D01*
X02555*
X02565Y02759*
Y02739*
X02555Y02729*
X02525*
X02545D02*
X02565Y0271D01*
X02595D02*
X02615D01*
X02625Y0272*
Y02739*
X02615Y02749*
X02595*
X02585Y02739*
Y0272*
X02595Y0271*
X02645Y02749D02*
Y0272D01*
X02655Y0271*
X02685*
Y02749*
X02705Y0271D02*
Y02749D01*
X02735*
X02745Y02739*
Y0271*
X02805Y02769D02*
Y0271D01*
X02775*
X02765Y0272*
Y02739*
X02775Y02749*
X02805*
X02525Y0256D02*
Y02619D01*
X02555*
X02565Y02609*
Y02589*
X02555Y02579*
X02525*
X02545D02*
X02565Y0256D01*
X02595D02*
X02615D01*
X02625Y0257*
Y02589*
X02615Y02599*
X02595*
X02585Y02589*
Y0257*
X02595Y0256*
X02645Y02599D02*
Y0257D01*
X02655Y0256*
X02685*
Y02599*
X02705Y0256D02*
Y02599D01*
X02735*
X02745Y02589*
Y0256*
X02805Y02619D02*
Y0256D01*
X02775*
X02765Y0257*
Y02589*
X02775Y02599*
X02805*
X02525Y0241D02*
Y02469D01*
X02555*
X02565Y02459*
Y02439*
X02555Y02429*
X02525*
X02545D02*
X02565Y0241D01*
X02595D02*
X02615D01*
X02625Y0242*
Y02439*
X02615Y02449*
X02595*
X02585Y02439*
Y0242*
X02595Y0241*
X02645Y02449D02*
Y0242D01*
X02655Y0241*
X02685*
Y02449*
X02705Y0241D02*
Y02449D01*
X02735*
X02745Y02439*
Y0241*
X02805Y02469D02*
Y0241D01*
X02775*
X02765Y0242*
Y02439*
X02775Y02449*
X02805*
X02019Y0301D02*
Y03069D01*
X02049*
X02059Y03059*
Y03039*
X02049Y03029*
X02019*
X02079Y03069D02*
X02119D01*
X02099*
Y0301*
X02139Y03069D02*
Y0301D01*
Y03039*
X02179*
Y03069*
Y0301*
X02019Y0286D02*
Y02919D01*
X02049*
X02059Y02909*
Y02889*
X02049Y02879*
X02019*
X02079Y02919D02*
X02119D01*
X02099*
Y0286*
X02139Y02919D02*
Y0286D01*
Y02889*
X02179*
Y02919*
Y0286*
X02019Y0271D02*
Y02769D01*
X02049*
X02059Y02759*
Y02739*
X02049Y02729*
X02019*
X02079Y02769D02*
X02119D01*
X02099*
Y0271*
X02139Y02769D02*
Y0271D01*
Y02739*
X02179*
Y02769*
Y0271*
X02019Y0256D02*
Y02619D01*
X02049*
X02059Y02609*
Y02589*
X02049Y02579*
X02019*
X02079Y02619D02*
X02119D01*
X02099*
Y0256*
X02139Y02619D02*
Y0256D01*
Y02589*
X02179*
Y02619*
Y0256*
X02019Y0241D02*
Y02469D01*
X02049*
X02059Y02459*
Y02439*
X02049Y02429*
X02019*
X02079Y02469D02*
X02119D01*
X02099*
Y0241*
X02139Y02469D02*
Y0241D01*
Y02439*
X02179*
Y02469*
Y0241*
X00713Y0301D02*
X00673D01*
X00713Y03049*
Y03059*
X00703Y03069*
X00683*
X00673Y03059*
X00733D02*
X00743Y03069D01*
X00763*
X00773Y03059*
Y0302*
X00763Y0301*
X00743*
X00733Y0302*
Y03059*
X00803Y03D02*
X00813Y0301D01*
Y0302*
X00803*
Y0301*
X00813*
X00803Y03*
X00793Y0299*
X00853Y03059D02*
X00863Y03069D01*
X00883*
X00893Y03059*
Y0302*
X00883Y0301*
X00863*
X00853Y0302*
Y03059*
X00913D02*
X00923Y03069D01*
X00943*
X00953Y03059*
Y0302*
X00943Y0301*
X00923*
X00913Y0302*
Y03059*
X00973Y0301D02*
Y03049D01*
X00983*
X00993Y03039*
Y0301*
Y03039*
X01003Y03049*
X01013Y03039*
Y0301*
X01033D02*
X01053D01*
X01043*
Y03049*
X01033*
X01083Y0301D02*
X01103D01*
X01093*
Y03069*
X01083*
X01213Y0301D02*
X01193Y03029D01*
Y03049*
X01213Y03069*
X01243Y03059D02*
X01253Y03069D01*
X01273*
X01283Y03059*
Y0302*
X01273Y0301*
X01253*
X01243Y0302*
Y03059*
X01313Y03D02*
X01323Y0301D01*
Y0302*
X01313*
Y0301*
X01323*
X01313Y03*
X01303Y0299*
X01403Y03069D02*
X01363D01*
Y03039*
X01383Y03049*
X01393*
X01403Y03039*
Y0302*
X01393Y0301*
X01373*
X01363Y0302*
X01423Y03059D02*
X01433Y03069D01*
X01453*
X01463Y03059*
Y0302*
X01453Y0301*
X01433*
X01423Y0302*
Y03059*
X01483D02*
X01493Y03069D01*
X01513*
X01523Y03059*
Y03049*
X01513Y03039*
X01523Y03029*
Y0302*
X01513Y0301*
X01493*
X01483Y0302*
Y03029*
X01493Y03039*
X01483Y03049*
Y03059*
X01493Y03039D02*
X01513D01*
X01543Y0301D02*
Y03049D01*
X01553*
X01563Y03039*
Y0301*
Y03039*
X01573Y03049*
X01583Y03039*
Y0301*
X01603D02*
Y03049D01*
X01613*
X01623Y03039*
Y0301*
Y03039*
X01633Y03049*
X01643Y03039*
Y0301*
X01663D02*
X01683Y03029D01*
Y03049*
X01663Y03069*
X00673Y02909D02*
X00683Y02919D01*
X00703*
X00713Y02909*
Y02899*
X00703Y02889*
X00693*
X00703*
X00713Y02879*
Y0287*
X00703Y0286*
X00683*
X00673Y0287*
X00773Y02919D02*
X00733D01*
Y02889*
X00753Y02899*
X00763*
X00773Y02889*
Y0287*
X00763Y0286*
X00743*
X00733Y0287*
X00803Y0285D02*
X00813Y0286D01*
Y0287*
X00803*
Y0286*
X00813*
X00803Y0285*
X00793Y0284*
X00883Y0286D02*
Y02919D01*
X00853Y02889*
X00893*
X00913Y02909D02*
X00923Y02919D01*
X00943*
X00953Y02909*
Y02899*
X00943Y02889*
X00933*
X00943*
X00953Y02879*
Y0287*
X00943Y0286*
X00923*
X00913Y0287*
X00973Y0286D02*
Y02899D01*
X00983*
X00993Y02889*
Y0286*
Y02889*
X01003Y02899*
X01013Y02889*
Y0286*
X01033D02*
X01053D01*
X01043*
Y02899*
X01033*
X01083Y0286D02*
X01103D01*
X01093*
Y02919*
X01083*
X01213Y0286D02*
X01193Y02879D01*
Y02899*
X01213Y02919*
X01243Y02909D02*
X01253Y02919D01*
X01273*
X01283Y02909*
Y0287*
X01273Y0286*
X01253*
X01243Y0287*
Y02909*
X01313Y0285D02*
X01323Y0286D01*
Y0287*
X01313*
Y0286*
X01323*
X01313Y0285*
X01303Y0284*
X01363Y0287D02*
X01373Y0286D01*
X01393*
X01403Y0287*
Y02909*
X01393Y02919*
X01373*
X01363Y02909*
Y02899*
X01373Y02889*
X01403*
X01423Y02909D02*
X01433Y02919D01*
X01453*
X01463Y02909*
Y0287*
X01453Y0286*
X01433*
X01423Y0287*
Y02909*
X01483D02*
X01493Y02919D01*
X01513*
X01523Y02909*
Y0287*
X01513Y0286*
X01493*
X01483Y0287*
Y02909*
X01543Y0286D02*
Y02899D01*
X01553*
X01563Y02889*
Y0286*
Y02889*
X01573Y02899*
X01583Y02889*
Y0286*
X01603D02*
Y02899D01*
X01613*
X01623Y02889*
Y0286*
Y02889*
X01633Y02899*
X01643Y02889*
Y0286*
X01663D02*
X01683Y02879D01*
Y02899*
X01663Y02919*
X00713Y02769D02*
X00693Y02759D01*
X00673Y02739*
Y0272*
X00683Y0271*
X00703*
X00713Y0272*
Y02729*
X00703Y02739*
X00673*
X00733Y02759D02*
X00743Y02769D01*
X00763*
X00773Y02759*
Y0272*
X00763Y0271*
X00743*
X00733Y0272*
Y02759*
X00803Y027D02*
X00813Y0271D01*
Y0272*
X00803*
Y0271*
X00813*
X00803Y027*
X00793Y0269*
X00853Y02759D02*
X00863Y02769D01*
X00883*
X00893Y02759*
Y0272*
X00883Y0271*
X00863*
X00853Y0272*
Y02759*
X00913D02*
X00923Y02769D01*
X00943*
X00953Y02759*
Y0272*
X00943Y0271*
X00923*
X00913Y0272*
Y02759*
X00973Y0271D02*
Y02749D01*
X00983*
X00993Y02739*
Y0271*
Y02739*
X01003Y02749*
X01013Y02739*
Y0271*
X01033D02*
X01053D01*
X01043*
Y02749*
X01033*
X01083Y0271D02*
X01103D01*
X01093*
Y02769*
X01083*
X01213Y0271D02*
X01193Y02729D01*
Y02749*
X01213Y02769*
X01243Y0271D02*
X01263D01*
X01253*
Y02769*
X01243Y02759*
X01303Y027D02*
X01313Y0271D01*
Y0272*
X01303*
Y0271*
X01313*
X01303Y027*
X01293Y0269*
X01393Y02769D02*
X01353D01*
Y02739*
X01373Y02749*
X01383*
X01393Y02739*
Y0272*
X01383Y0271*
X01363*
X01353Y0272*
X01453Y0271D02*
X01413D01*
X01453Y02749*
Y02759*
X01443Y02769*
X01423*
X01413Y02759*
X01503Y0271D02*
Y02769D01*
X01473Y02739*
X01513*
X01533Y0271D02*
Y02749D01*
X01543*
X01553Y02739*
Y0271*
Y02739*
X01563Y02749*
X01573Y02739*
Y0271*
X01593D02*
Y02749D01*
X01603*
X01613Y02739*
Y0271*
Y02739*
X01623Y02749*
X01633Y02739*
Y0271*
X01653D02*
X01673Y02729D01*
Y02749*
X01653Y02769*
X00703Y0256D02*
Y02619D01*
X00673Y02589*
X00713*
X00733Y02609D02*
X00743Y02619D01*
X00763*
X00773Y02609*
Y0257*
X00763Y0256*
X00743*
X00733Y0257*
Y02609*
X00803Y0255D02*
X00813Y0256D01*
Y0257*
X00803*
Y0256*
X00813*
X00803Y0255*
X00793Y0254*
X00853Y02609D02*
X00863Y02619D01*
X00883*
X00893Y02609*
Y0257*
X00883Y0256*
X00863*
X00853Y0257*
Y02609*
X00913D02*
X00923Y02619D01*
X00943*
X00953Y02609*
Y0257*
X00943Y0256*
X00923*
X00913Y0257*
Y02609*
X00973Y0256D02*
Y02599D01*
X00983*
X00993Y02589*
Y0256*
Y02589*
X01003Y02599*
X01013Y02589*
Y0256*
X01033D02*
X01053D01*
X01043*
Y02599*
X01033*
X01083Y0256D02*
X01103D01*
X01093*
Y02619*
X01083*
X01213Y0256D02*
X01193Y02579D01*
Y02599*
X01213Y02619*
X01243Y0256D02*
X01263D01*
X01253*
Y02619*
X01243Y02609*
X01303Y0255D02*
X01313Y0256D01*
Y0257*
X01303*
Y0256*
X01313*
X01303Y0255*
X01293Y0254*
X01353Y02609D02*
X01363Y02619D01*
X01383*
X01393Y02609*
Y0257*
X01383Y0256*
X01363*
X01353Y0257*
Y02609*
X01413Y0256D02*
X01433D01*
X01423*
Y02619*
X01413Y02609*
X01503Y02619D02*
X01483Y02609D01*
X01463Y02589*
Y0257*
X01473Y0256*
X01493*
X01503Y0257*
Y02579*
X01493Y02589*
X01463*
X01523Y0256D02*
Y02599D01*
X01533*
X01543Y02589*
Y0256*
Y02589*
X01553Y02599*
X01563Y02589*
Y0256*
X01583D02*
Y02599D01*
X01593*
X01603Y02589*
Y0256*
Y02589*
X01613Y02599*
X01623Y02589*
Y0256*
X01643D02*
X01663Y02579D01*
Y02599*
X01643Y02619*
X00673Y0241D02*
X00693D01*
X00683*
Y02469*
X00673Y02459*
X00763Y0241D02*
X00723D01*
X00763Y02449*
Y02459*
X00753Y02469*
X00733*
X00723Y02459*
X00793Y024D02*
X00803Y0241D01*
Y0242*
X00793*
Y0241*
X00803*
X00793Y024*
X00783Y0239*
X00843Y02459D02*
X00853Y02469D01*
X00873*
X00883Y02459*
Y0242*
X00873Y0241*
X00853*
X00843Y0242*
Y02459*
X00903D02*
X00913Y02469D01*
X00933*
X00943Y02459*
Y0242*
X00933Y0241*
X00913*
X00903Y0242*
Y02459*
X00963Y0241D02*
Y02449D01*
X00973*
X00983Y02439*
Y0241*
Y02439*
X00993Y02449*
X01003Y02439*
Y0241*
X01023D02*
X01043D01*
X01033*
Y02449*
X01023*
X01073Y0241D02*
X01093D01*
X01083*
Y02469*
X01073*
X01203Y0241D02*
X01183Y02429D01*
Y02449*
X01203Y02469*
X01233Y02459D02*
X01243Y02469D01*
X01263*
X01273Y02459*
Y0242*
X01263Y0241*
X01243*
X01233Y0242*
Y02459*
X01303Y024D02*
X01313Y0241D01*
Y0242*
X01303*
Y0241*
X01313*
X01303Y024*
X01293Y0239*
X01353Y02459D02*
X01363Y02469D01*
X01383*
X01393Y02459*
Y02449*
X01383Y02439*
X01373*
X01383*
X01393Y02429*
Y0242*
X01383Y0241*
X01363*
X01353Y0242*
X01413Y02459D02*
X01423Y02469D01*
X01443*
X01453Y02459*
Y0242*
X01443Y0241*
X01423*
X01413Y0242*
Y02459*
X01513Y02469D02*
X01473D01*
Y02439*
X01493Y02449*
X01503*
X01513Y02439*
Y0242*
X01503Y0241*
X01483*
X01473Y0242*
X01533Y0241D02*
Y02449D01*
X01543*
X01553Y02439*
Y0241*
Y02439*
X01563Y02449*
X01573Y02439*
Y0241*
X01593D02*
Y02449D01*
X01603*
X01613Y02439*
Y0241*
Y02439*
X01623Y02449*
X01633Y02439*
Y0241*
X01653D02*
X01673Y02429D01*
Y02449*
X01653Y02469*
X-00024Y0226D02*
X-00004D01*
X-00014*
Y02319*
X-00024Y02309*
X00065Y0226D02*
X00025D01*
X00065Y02299*
Y02309*
X00055Y02319*
X00035*
X00025Y02309*
X00085D02*
X00095Y02319D01*
X00115*
X00125Y02309*
Y02299*
X00115Y02289*
X00125Y02279*
Y0227*
X00115Y0226*
X00095*
X00085Y0227*
Y02279*
X00095Y02289*
X00085Y02299*
Y02309*
X00095Y02289D02*
X00115D01*
X00205Y02319D02*
X00245D01*
X00225*
Y0226*
X00275D02*
X00295D01*
X00305Y0227*
Y02289*
X00295Y02299*
X00275*
X00265Y02289*
Y0227*
X00275Y0226*
X00335Y02309D02*
Y02299D01*
X00325*
X00345*
X00335*
Y0227*
X00345Y0226*
X00385Y02299D02*
X00405D01*
X00415Y02289*
Y0226*
X00385*
X00375Y0227*
X00385Y02279*
X00415*
X00435Y0226D02*
X00455D01*
X00445*
Y02319*
X00435*
X00015Y0301D02*
X-00024D01*
X00015Y03049*
Y03059*
X00005Y03069*
X-00014*
X-00024Y03059*
X00015Y02919D02*
X-00024D01*
Y02889*
X-00004Y02899*
X00005*
X00015Y02889*
Y0287*
X00005Y0286*
X-00014*
X-00024Y0287*
Y02759D02*
X-00014Y02769D01*
X00005*
X00015Y02759*
Y02749*
X00005Y02739*
X00015Y02729*
Y0272*
X00005Y0271*
X-00014*
X-00024Y0272*
Y02729*
X-00014Y02739*
X-00024Y02749*
Y02759*
X-00014Y02739D02*
X00005D01*
X00015Y0256D02*
X-00024D01*
X00015Y02599*
Y02609*
X00005Y02619*
X-00014*
X-00024Y02609*
X00035D02*
X00045Y02619D01*
X00065*
X00075Y02609*
Y02599*
X00065Y02589*
X00075Y02579*
Y0257*
X00065Y0256*
X00045*
X00035Y0257*
Y02579*
X00045Y02589*
X00035Y02599*
Y02609*
X00045Y02589D02*
X00065D01*
X-00024Y02459D02*
X-00014Y02469D01*
X00005*
X00015Y02459*
Y02449*
X00005Y02439*
X00015Y02429*
Y0242*
X00005Y0241*
X-00014*
X-00024Y0242*
Y02429*
X-00014Y02439*
X-00024Y02449*
Y02459*
X-00014Y02439D02*
X00005D01*
X00075Y02469D02*
X00035D01*
Y02439*
X00055Y02449*
X00065*
X00075Y02439*
Y0242*
X00065Y0241*
X00045*
X00035Y0242*
G54D70*
X-00501Y03035D02*
D01*
X-00501Y03036*
X-00502Y03038*
X-00502Y0304*
X-00502Y03041*
X-00503Y03043*
X-00504Y03045*
X-00504Y03046*
X-00505Y03048*
X-00506Y03049*
X-00507Y03051*
X-00508Y03052*
X-0051Y03053*
X-00511Y03054*
X-00512Y03055*
X-00514Y03056*
X-00515Y03057*
X-00517Y03058*
X-00519Y03058*
X-0052Y03059*
X-00522Y03059*
X-00524Y03059*
X-00525Y03059*
X-00527*
X-00529Y03059*
X-00531Y03059*
X-00532Y03059*
X-00534Y03058*
X-00536Y03058*
X-00537Y03057*
X-00539Y03056*
X-0054Y03055*
X-00542Y03054*
X-00543Y03053*
X-00544Y03052*
X-00546Y03051*
X-00547Y03049*
X-00548Y03048*
X-00548Y03046*
X-00549Y03045*
X-0055Y03043*
X-0055Y03041*
X-00551Y0304*
X-00551Y03038*
X-00551Y03036*
X-00551Y03035*
X-00551Y03033*
X-00551Y03031*
X-00551Y03029*
X-0055Y03028*
X-0055Y03026*
X-00549Y03024*
X-00548Y03023*
X-00548Y03021*
X-00547Y0302*
X-00546Y03018*
X-00544Y03017*
X-00543Y03016*
X-00542Y03015*
X-0054Y03014*
X-00539Y03013*
X-00537Y03012*
X-00536Y03011*
X-00534Y03011*
X-00532Y0301*
X-00531Y0301*
X-00529Y0301*
X-00527Y0301*
X-00525*
X-00524Y0301*
X-00522Y0301*
X-0052Y0301*
X-00519Y03011*
X-00517Y03011*
X-00515Y03012*
X-00514Y03013*
X-00512Y03014*
X-00511Y03015*
X-0051Y03016*
X-00508Y03017*
X-00507Y03018*
X-00506Y0302*
X-00505Y03021*
X-00504Y03023*
X-00504Y03024*
X-00503Y03026*
X-00502Y03028*
X-00502Y03029*
X-00502Y03031*
X-00501Y03033*
X-00501Y03035*
X02226Y0152D02*
D01*
X02226Y01521*
X02226Y01522*
X02226Y01523*
X02226Y01524*
X02225Y01525*
X02225Y01526*
X02224Y01527*
X02224Y01528*
X02223Y01529*
X02222Y0153*
X02221Y01531*
X02221Y01532*
X0222Y01533*
X02219Y01533*
X02218Y01534*
X02217Y01534*
X02216Y01535*
X02215Y01535*
X02214Y01536*
X02212Y01536*
X02211Y01536*
X0221Y01536*
X02209*
X02208Y01536*
X02207Y01536*
X02205Y01536*
X02204Y01535*
X02203Y01535*
X02202Y01534*
X02201Y01534*
X022Y01533*
X02199Y01533*
X02198Y01532*
X02198Y01531*
X02197Y0153*
X02196Y01529*
X02195Y01528*
X02195Y01527*
X02194Y01526*
X02194Y01525*
X02193Y01524*
X02193Y01523*
X02193Y01522*
X02193Y01521*
X02193Y0152*
X02193Y01518*
X02193Y01517*
X02193Y01516*
X02193Y01515*
X02194Y01514*
X02194Y01513*
X02195Y01512*
X02195Y01511*
X02196Y0151*
X02197Y01509*
X02198Y01508*
X02198Y01507*
X02199Y01506*
X022Y01506*
X02201Y01505*
X02202Y01505*
X02203Y01504*
X02204Y01504*
X02205Y01503*
X02207Y01503*
X02208Y01503*
X02209Y01503*
X0221*
X02211Y01503*
X02212Y01503*
X02214Y01503*
X02215Y01504*
X02216Y01504*
X02217Y01505*
X02218Y01505*
X02219Y01506*
X0222Y01506*
X02221Y01507*
X02221Y01508*
X02222Y01509*
X02223Y0151*
X02224Y01511*
X02224Y01512*
X02225Y01513*
X02225Y01514*
X02226Y01515*
X02226Y01516*
X02226Y01517*
X02226Y01518*
X02226Y0152*
Y0142D02*
D01*
X02226Y01421*
X02226Y01422*
X02226Y01423*
X02226Y01424*
X02225Y01425*
X02225Y01426*
X02224Y01427*
X02224Y01428*
X02223Y01429*
X02222Y0143*
X02221Y01431*
X02221Y01432*
X0222Y01433*
X02219Y01433*
X02218Y01434*
X02217Y01434*
X02216Y01435*
X02215Y01435*
X02214Y01436*
X02212Y01436*
X02211Y01436*
X0221Y01436*
X02209*
X02208Y01436*
X02207Y01436*
X02205Y01436*
X02204Y01435*
X02203Y01435*
X02202Y01434*
X02201Y01434*
X022Y01433*
X02199Y01433*
X02198Y01432*
X02198Y01431*
X02197Y0143*
X02196Y01429*
X02195Y01428*
X02195Y01427*
X02194Y01426*
X02194Y01425*
X02193Y01424*
X02193Y01423*
X02193Y01422*
X02193Y01421*
X02193Y0142*
X02193Y01418*
X02193Y01417*
X02193Y01416*
X02193Y01415*
X02194Y01414*
X02194Y01413*
X02195Y01412*
X02195Y01411*
X02196Y0141*
X02197Y01409*
X02198Y01408*
X02198Y01407*
X02199Y01406*
X022Y01406*
X02201Y01405*
X02202Y01405*
X02203Y01404*
X02204Y01404*
X02205Y01403*
X02207Y01403*
X02208Y01403*
X02209Y01403*
X0221*
X02211Y01403*
X02212Y01403*
X02214Y01403*
X02215Y01404*
X02216Y01404*
X02217Y01405*
X02218Y01405*
X02219Y01406*
X0222Y01406*
X02221Y01407*
X02221Y01408*
X02222Y01409*
X02223Y0141*
X02224Y01411*
X02224Y01412*
X02225Y01413*
X02225Y01414*
X02226Y01415*
X02226Y01416*
X02226Y01417*
X02226Y01418*
X02226Y0142*
X-00539Y02872D02*
X-00526Y0286D01*
X-00551Y02872D02*
X-00539D01*
X-00551D02*
X-00539Y02885D01*
X-00551Y02897D02*
X-00539Y02885D01*
X-00551Y02897D02*
X-00539D01*
X-00526Y0291*
X-00514Y02897*
X-00501*
X-00514Y02885D02*
X-00501Y02897D01*
X-00514Y02885D02*
X-00501Y02872D01*
X-00514D02*
X-00501D01*
X-00526Y0286D02*
X-00514Y02872D01*
X-00551Y0271D02*
X-00526Y02722D01*
X-00501Y0271*
X-00514Y02735D02*
X-00501Y0271D01*
X-00514Y02735D02*
X-00501Y0276D01*
X-00526Y02747D02*
X-00501Y0276D01*
X-00551D02*
X-00526Y02747D01*
X-00551Y0276D02*
X-00539Y02735D01*
X-00551Y0271D02*
X-00539Y02735D01*
X-00551Y0256D02*
X-00501D01*
Y0261*
X-00551D02*
X-00501D01*
X-00551Y0256D02*
Y0261D01*
X-00526Y0241D02*
X-00501Y0246D01*
X-00551D02*
X-00501D01*
X-00551D02*
X-00526Y0241D01*
X01348Y01689D02*
X01365Y01723D01*
X01331D02*
X01365D01*
X01331D02*
X01348Y01689D01*
X0152Y01603D02*
X01536Y01636D01*
X01503D02*
X01536D01*
X01503D02*
X0152Y01603D01*
X01595Y01568D02*
X01611Y01601D01*
X01578D02*
X01611D01*
X01578D02*
X01595Y01568D01*
X0119Y01268D02*
X01206Y01301D01*
X01173D02*
X01206D01*
X01173D02*
X0119Y01268D01*
X00925Y01428D02*
X00941Y01461D01*
X00908D02*
X00941D01*
X00908D02*
X00925Y01428D01*
X0123Y01238D02*
X01246Y01271D01*
X01213D02*
X01246D01*
X01213D02*
X0123Y01238D01*
X0092Y01388D02*
X00936Y01421D01*
X00903D02*
X00936D01*
X00903D02*
X0092Y01388D01*
X01542Y01195D02*
X01559Y01229D01*
X01525D02*
X01559D01*
X01525D02*
X01542Y01195D01*
X0155Y01133D02*
X01566Y01166D01*
X01533D02*
X01566D01*
X01533D02*
X0155Y01133D01*
X0059Y00808D02*
X00606Y00841D01*
X00573D02*
X00606D01*
X00573D02*
X0059Y00808D01*
X00825Y01813D02*
X00841Y01846D01*
X00808D02*
X00841D01*
X00808D02*
X00825Y01813D01*
X0079Y01603D02*
X00806Y01636D01*
X00773D02*
X00806D01*
X00773D02*
X0079Y01603D01*
X0117Y01933D02*
X01186Y01966D01*
X01153D02*
X01186D01*
X01153D02*
X0117Y01933D01*
X0112Y01478D02*
X01136Y01511D01*
X01103D02*
X01136D01*
X01103D02*
X0112Y01478D01*
X01075Y01488D02*
X01091Y01521D01*
X01058D02*
X01091D01*
X01058D02*
X01075Y01488D01*
X0205Y01738D02*
X02066Y01771D01*
X02033D02*
X02066D01*
X02033D02*
X0205Y01738D01*
Y01643D02*
X02066Y01676D01*
X02033D02*
X02066D01*
X02033D02*
X0205Y01643D01*
X01122Y00805D02*
X01139Y00839D01*
X01105D02*
X01139D01*
X01105D02*
X01122Y00805D01*
X01145Y00878D02*
X01161Y00911D01*
X01128D02*
X01161D01*
X01128D02*
X01145Y00878D01*
X01195Y00833D02*
X01211Y00866D01*
X01178D02*
X01211D01*
X01178D02*
X01195Y00833D01*
X01125Y01213D02*
X01141Y01246D01*
X01108D02*
X01141D01*
X01108D02*
X01125Y01213D01*
X01185Y00948D02*
X01201Y00981D01*
X01168D02*
X01201D01*
X01168D02*
X01185Y00948D01*
X0073Y01488D02*
X00746Y01521D01*
X00713D02*
X00746D01*
X00713D02*
X0073Y01488D01*
X0077Y00733D02*
X00786Y00766D01*
X00753D02*
X00786D01*
X00753D02*
X0077Y00733D01*
X01225Y01483D02*
X01241Y01516D01*
X01208D02*
X01241D01*
X01208D02*
X01225Y01483D01*
X0119Y01213D02*
X01206Y01246D01*
X01173D02*
X01206D01*
X01173D02*
X0119Y01213D01*
X0138Y00673D02*
X01396Y00706D01*
X01363D02*
X01396D01*
X01363D02*
X0138Y00673D01*
X0176Y00808D02*
X01776Y00841D01*
X01743D02*
X01776D01*
X01743D02*
X0176Y00808D01*
X01295D02*
X01311Y00841D01*
X01278D02*
X01311D01*
X01278D02*
X01295Y00808D01*
X0125Y00948D02*
X01266Y00981D01*
X01233D02*
X01266D01*
X01233D02*
X0125Y00948D01*
X0121Y01358D02*
X01226Y01391D01*
X01193D02*
X01226D01*
X01193D02*
X0121Y01358D01*
Y01408D02*
X01226Y01441D01*
X01193D02*
X01226D01*
X01193D02*
X0121Y01408D01*
X007Y01558D02*
X00716Y01591D01*
X00683D02*
X00716D01*
X00683D02*
X007Y01558D01*
Y01518D02*
X00716Y01551D01*
X00683D02*
X00716D01*
X00683D02*
X007Y01518D01*
X00613Y01744D02*
X0063Y01778D01*
X00596D02*
X0063D01*
X00596D02*
X00613Y01744D01*
X00411D02*
X00428Y01778D01*
X00394D02*
X00428D01*
X00394D02*
X00411Y01744D01*
X00885Y01833D02*
X00901Y01866D01*
X00868D02*
X00901D01*
X00868D02*
X00885Y01833D01*
X00985Y01513D02*
X01001Y01546D01*
X00968D02*
X01001D01*
X00968D02*
X00985Y01513D01*
X0041Y01658D02*
X00426Y01691D01*
X00393D02*
X00426D01*
X00393D02*
X0041Y01658D01*
X0076Y01451D02*
X00776Y01484D01*
X00743D02*
X00776D01*
X00743D02*
X0076Y01451D01*
X00785Y01418D02*
X00801Y01451D01*
X00768D02*
X00801D01*
X00768D02*
X00785Y01418D01*
X00685Y00768D02*
X00701Y00801D01*
X00668D02*
X00701D01*
X00668D02*
X00685Y00768D01*
X00475Y00808D02*
X00491Y00841D01*
X00458D02*
X00491D01*
X00458D02*
X00475Y00808D01*
X0059Y01213D02*
X00606Y01246D01*
X00573D02*
X00606D01*
X00573D02*
X0059Y01213D01*
Y01273D02*
X00606Y01306D01*
X00573D02*
X00606D01*
X00573D02*
X0059Y01273D01*
X0176Y00643D02*
X01776Y00676D01*
X01743D02*
X01776D01*
X01743D02*
X0176Y00643D01*
X00907Y00526D02*
X00924Y00559D01*
X00891D02*
X00924D01*
X00891D02*
X00907Y00526D01*
X01122Y0062D02*
X01139Y00654D01*
X01105D02*
X01139D01*
X01105D02*
X01122Y0062D01*
X01097Y00581D02*
X01113Y00614D01*
X0108D02*
X01113D01*
X0108D02*
X01097Y00581D01*
X01075Y00468D02*
X01091Y00501D01*
X01058D02*
X01091D01*
X01058D02*
X01075Y00468D01*
X0151Y00459D02*
X01527Y00492D01*
X01494D02*
X01527D01*
X01494D02*
X0151Y00459D01*
X00948Y01833D02*
X00965Y01866D01*
X00932D02*
X00965D01*
X00932D02*
X00948Y01833D01*
X0059Y00553D02*
X00606Y00586D01*
X00573D02*
X00606D01*
X00573D02*
X0059Y00553D01*
X0077D02*
X00786Y00586D01*
X00753D02*
X00786D01*
X00753D02*
X0077Y00553D01*
X01295Y00643D02*
X01311Y00676D01*
X01278D02*
X01311D01*
X01278D02*
X01295Y00643D01*
X01365Y00608D02*
X01381Y00641D01*
X01348D02*
X01381D01*
X01348D02*
X01365Y00608D01*
X0186D02*
X01876Y00641D01*
X01843D02*
X01876D01*
X01843D02*
X0186Y00608D01*
X0093Y00603D02*
X00946Y00636D01*
X00913D02*
X00946D01*
X00913D02*
X0093Y00603D01*
X00555Y00923D02*
X00571Y00956D01*
X00538D02*
X00571D01*
X00538D02*
X00555Y00923D01*
X00395D02*
X00411Y00956D01*
X00378D02*
X00411D01*
X00378D02*
X00395Y00923D01*
X00235D02*
X00251Y00956D01*
X00218D02*
X00251D01*
X00218D02*
X00235Y00923D01*
X00075D02*
X00091Y00956D01*
X00058D02*
X00091D01*
X00058D02*
X00075Y00923D01*
X0085Y00929D02*
X00866Y00962D01*
X00833D02*
X00866D01*
X00833D02*
X0085Y00929D01*
X0093Y01183D02*
X00946Y01216D01*
X00913D02*
X00946D01*
X00913D02*
X0093Y01183D01*
X0073Y01083D02*
X00746Y01116D01*
X00713D02*
X00746D01*
X00713D02*
X0073Y01083D01*
X0092Y00818D02*
X00936Y00851D01*
X00903D02*
X00936D01*
X00903D02*
X0092Y00818D01*
X00236Y00793D02*
X00252Y00826D01*
X00219D02*
X00252D01*
X00219D02*
X00236Y00793D01*
X00204D02*
X0022Y00826D01*
X00187D02*
X0022D01*
X00187D02*
X00204Y00793D01*
X00268D02*
X00284Y00826D01*
X00251D02*
X00284D01*
X00251D02*
X00268Y00793D01*
X003D02*
X00316Y00826D01*
X00283D02*
X00316D01*
X00283D02*
X003Y00793D01*
X0115Y00589D02*
X01166Y00622D01*
X01133D02*
X01166D01*
X01133D02*
X0115Y00589D01*
X00311Y01518D02*
X00327Y01551D01*
X00294D02*
X00327D01*
X00294D02*
X00311Y01518D01*
X00385D02*
X00401Y01551D01*
X00368D02*
X00401D01*
X00368D02*
X00385Y01518D01*
X01675Y01392D02*
X01691Y01426D01*
X01658D02*
X01691D01*
X01658D02*
X01675Y01392D01*
X0115Y00208D02*
X01166Y00241D01*
X01133D02*
X01166D01*
X01133D02*
X0115Y00208D01*
X0125D02*
X01266Y00241D01*
X01233D02*
X01266D01*
X01233D02*
X0125Y00208D01*
X01737Y0141D02*
X01753Y01443D01*
X0172D02*
X01753D01*
X0172D02*
X01737Y0141D01*
X01405Y01358D02*
X01421Y01391D01*
X01388D02*
X01421D01*
X01388D02*
X01405Y01358D01*
X011Y01183D02*
X01116Y01216D01*
X01083D02*
X01116D01*
X01083D02*
X011Y01183D01*
X00991Y01229D02*
X01008Y01263D01*
X00974D02*
X01008D01*
X00974D02*
X00991Y01229D01*
X0089Y00748D02*
X00906Y00781D01*
X00873D02*
X00906D01*
X00873D02*
X0089Y00748D01*
X01015Y01173D02*
X01032Y01206D01*
X00998D02*
X01032D01*
X00998D02*
X01015Y01173D01*
X01026Y01069D02*
X01043Y01102D01*
X01009D02*
X01043D01*
X01009D02*
X01026Y01069D01*
X01635Y01928D02*
X01651Y01961D01*
X01618D02*
X01651D01*
X01618D02*
X01635Y01928D01*
X01535Y01933D02*
X01551Y01966D01*
X01518D02*
X01551D01*
X01518D02*
X01535Y01933D01*
X00111Y01521D02*
X0012Y01513D01*
X00103Y01521D02*
X00111D01*
X00103D02*
X00111Y0153D01*
X00103Y01538D02*
X00111Y0153D01*
X00103Y01538D02*
X00111D01*
X0012Y01546*
X00128Y01538*
X00136*
X00128Y0153D02*
X00136Y01538D01*
X00128Y0153D02*
X00136Y01521D01*
X00128D02*
X00136D01*
X0012Y01513D02*
X00128Y01521D01*
X00111Y01621D02*
X0012Y01613D01*
X00103Y01621D02*
X00111D01*
X00103D02*
X00111Y0163D01*
X00103Y01638D02*
X00111Y0163D01*
X00103Y01638D02*
X00111D01*
X0012Y01646*
X00128Y01638*
X00136*
X00128Y0163D02*
X00136Y01638D01*
X00128Y0163D02*
X00136Y01621D01*
X00128D02*
X00136D01*
X0012Y01613D02*
X00128Y01621D01*
X00111Y01721D02*
X0012Y01713D01*
X00103Y01721D02*
X00111D01*
X00103D02*
X00111Y0173D01*
X00103Y01738D02*
X00111Y0173D01*
X00103Y01738D02*
X00111D01*
X0012Y01746*
X00128Y01738*
X00136*
X00128Y0173D02*
X00136Y01738D01*
X00128Y0173D02*
X00136Y01721D01*
X00128D02*
X00136D01*
X0012Y01713D02*
X00128Y01721D01*
X00111Y01821D02*
X0012Y01813D01*
X00103Y01821D02*
X00111D01*
X00103D02*
X00111Y0183D01*
X00103Y01838D02*
X00111Y0183D01*
X00103Y01838D02*
X00111D01*
X0012Y01846*
X00128Y01838*
X00136*
X00128Y0183D02*
X00136Y01838D01*
X00128Y0183D02*
X00136Y01821D01*
X00128D02*
X00136D01*
X0012Y01813D02*
X00128Y01821D01*
X00111Y01921D02*
X0012Y01913D01*
X00103Y01921D02*
X00111D01*
X00103D02*
X00111Y0193D01*
X00103Y01938D02*
X00111Y0193D01*
X00103Y01938D02*
X00111D01*
X0012Y01946*
X00128Y01938*
X00136*
X00128Y0193D02*
X00136Y01938D01*
X00128Y0193D02*
X00136Y01921D01*
X00128D02*
X00136D01*
X0012Y01913D02*
X00128Y01921D01*
X00083Y00183D02*
X001Y00191D01*
X00116Y00183*
X00108Y002D02*
X00116Y00183D01*
X00108Y002D02*
X00116Y00216D01*
X001Y00208D02*
X00116Y00216D01*
X00083D02*
X001Y00208D01*
X00083Y00216D02*
X00091Y002D01*
X00083Y00183D02*
X00091Y002D01*
X00083Y00483D02*
X001Y00491D01*
X00116Y00483*
X00108Y005D02*
X00116Y00483D01*
X00108Y005D02*
X00116Y00516D01*
X001Y00508D02*
X00116Y00516D01*
X00083D02*
X001Y00508D01*
X00083Y00516D02*
X00091Y005D01*
X00083Y00483D02*
X00091Y005D01*
X00383Y00183D02*
X004Y00191D01*
X00416Y00183*
X00408Y002D02*
X00416Y00183D01*
X00408Y002D02*
X00416Y00216D01*
X004Y00208D02*
X00416Y00216D01*
X00383D02*
X004Y00208D01*
X00383Y00216D02*
X00391Y002D01*
X00383Y00183D02*
X00391Y002D01*
X00383Y00483D02*
X004Y00491D01*
X00416Y00483*
X00408Y005D02*
X00416Y00483D01*
X00408Y005D02*
X00416Y00516D01*
X004Y00508D02*
X00416Y00516D01*
X00383D02*
X004Y00508D01*
X00383Y00516D02*
X00391Y005D01*
X00383Y00483D02*
X00391Y005D01*
X02083Y00183D02*
X021Y00191D01*
X02116Y00183*
X02108Y002D02*
X02116Y00183D01*
X02108Y002D02*
X02116Y00216D01*
X021Y00208D02*
X02116Y00216D01*
X02083D02*
X021Y00208D01*
X02083Y00216D02*
X02091Y002D01*
X02083Y00183D02*
X02091Y002D01*
X02083Y00483D02*
X021Y00491D01*
X02116Y00483*
X02108Y005D02*
X02116Y00483D01*
X02108Y005D02*
X02116Y00516D01*
X021Y00508D02*
X02116Y00516D01*
X02083D02*
X021Y00508D01*
X02083Y00516D02*
X02091Y005D01*
X02083Y00483D02*
X02091Y005D01*
X02383Y00183D02*
X024Y00191D01*
X02416Y00183*
X02408Y002D02*
X02416Y00183D01*
X02408Y002D02*
X02416Y00216D01*
X024Y00208D02*
X02416Y00216D01*
X02383D02*
X024Y00208D01*
X02383Y00216D02*
X02391Y002D01*
X02383Y00183D02*
X02391Y002D01*
X02383Y00483D02*
X024Y00491D01*
X02416Y00483*
X02408Y005D02*
X02416Y00483D01*
X02408Y005D02*
X02416Y00516D01*
X024Y00508D02*
X02416Y00516D01*
X02383D02*
X024Y00508D01*
X02383Y00516D02*
X02391Y005D01*
X02383Y00483D02*
X02391Y005D01*
X01783Y00383D02*
X01816D01*
Y00416*
X01783D02*
X01816D01*
X01783Y00383D02*
Y00416D01*
X01583Y00383D02*
X01616D01*
Y00416*
X01583D02*
X01616D01*
X01583Y00383D02*
Y00416D01*
X01683Y00383D02*
X01716D01*
Y00416*
X01683D02*
X01716D01*
X01683Y00383D02*
Y00416D01*
X01883Y00383D02*
X01916D01*
Y00416*
X01883D02*
X01916D01*
X01883Y00383D02*
Y00416D01*
X01483Y00383D02*
X01516D01*
Y00416*
X01483D02*
X01516D01*
X01483Y00383D02*
Y00416D01*
X01383Y00383D02*
X01416D01*
Y00416*
X01383D02*
X01416D01*
X01383Y00383D02*
Y00416D01*
X01283Y00383D02*
X01316D01*
Y00416*
X01283D02*
X01316D01*
X01283Y00383D02*
Y00416D01*
X01183Y00383D02*
X01216D01*
Y00416*
X01183D02*
X01216D01*
X01183Y00383D02*
Y00416D01*
X01083Y00383D02*
X01116D01*
Y00416*
X01083D02*
X01116D01*
X01083Y00383D02*
Y00416D01*
X00983Y00383D02*
X01016D01*
Y00416*
X00983D02*
X01016D01*
X00983Y00383D02*
Y00416D01*
X00883Y00383D02*
X00916D01*
Y00416*
X00883D02*
X00916D01*
X00883Y00383D02*
Y00416D01*
X00783Y00383D02*
X00816D01*
Y00416*
X00783D02*
X00816D01*
X00783Y00383D02*
Y00416D01*
X00683Y00383D02*
X00716D01*
Y00416*
X00683D02*
X00716D01*
X00683Y00383D02*
Y00416D01*
X00583Y00283D02*
X00616D01*
Y00316*
X00583D02*
X00616D01*
X00583Y00283D02*
Y00316D01*
X01883Y00283D02*
X01916D01*
Y00316*
X01883D02*
X01916D01*
X01883Y00283D02*
Y00316D01*
X01783Y00283D02*
X01816D01*
Y00316*
X01783D02*
X01816D01*
X01783Y00283D02*
Y00316D01*
X01683Y00283D02*
X01716D01*
Y00316*
X01683D02*
X01716D01*
X01683Y00283D02*
Y00316D01*
X01583Y00283D02*
X01616D01*
Y00316*
X01583D02*
X01616D01*
X01583Y00283D02*
Y00316D01*
X01483Y00283D02*
X01516D01*
Y00316*
X01483D02*
X01516D01*
X01483Y00283D02*
Y00316D01*
X01383Y00283D02*
X01416D01*
Y00316*
X01383D02*
X01416D01*
X01383Y00283D02*
Y00316D01*
X01283Y00283D02*
X01316D01*
Y00316*
X01283D02*
X01316D01*
X01283Y00283D02*
Y00316D01*
X01183Y00283D02*
X01216D01*
Y00316*
X01183D02*
X01216D01*
X01183Y00283D02*
Y00316D01*
X01083Y00283D02*
X01116D01*
Y00316*
X01083D02*
X01116D01*
X01083Y00283D02*
Y00316D01*
X00983Y00283D02*
X01016D01*
Y00316*
X00983D02*
X01016D01*
X00983Y00283D02*
Y00316D01*
X00883Y00283D02*
X00916D01*
Y00316*
X00883D02*
X00916D01*
X00883Y00283D02*
Y00316D01*
X00783Y00283D02*
X00816D01*
Y00316*
X00783D02*
X00816D01*
X00783Y00283D02*
Y00316D01*
X00683Y00283D02*
X00716D01*
Y00316*
X00683D02*
X00716D01*
X00683Y00283D02*
Y00316D01*
X00583Y00383D02*
X00616D01*
Y00416*
X00583D02*
X00616D01*
X00583Y00383D02*
Y00416D01*
G54D71*
X-0062Y03115D02*
X03258D01*
X-0062Y02365D02*
X03258D01*
X-0062Y02215D02*
X03258D01*
Y03265*
X-0062D02*
X03258D01*
X-0062Y02215D02*
Y03265D01*
X0248Y02215D02*
Y03265D01*
X01974Y02215D02*
Y03265D01*
X00628Y02215D02*
Y03265D01*
X-00069Y02215D02*
Y03265D01*
G54D72*
X02525Y03231D02*
Y0316D01*
Y03195*
X02573*
Y03231*
Y0316*
X02609D02*
X02633D01*
X02645Y03172*
Y03195*
X02633Y03207*
X02609*
X02597Y03195*
Y03172*
X02609Y0316*
X02669D02*
X02693D01*
X02681*
Y03231*
X02669*
X02765Y0316D02*
X02741D01*
X02729Y03172*
Y03195*
X02741Y03207*
X02765*
X02777Y03195*
Y03183*
X02729*
X02873Y03231D02*
X02921D01*
X02897*
Y0316*
X02945Y03207D02*
Y03172D01*
X02957Y0316*
X02993*
Y03148*
X02981Y03136*
X02969*
X02993Y0316D02*
Y03207D01*
X03017Y03136D02*
Y03207D01*
X03053*
X03064Y03195*
Y03172*
X03053Y0316*
X03017*
X03124D02*
X031D01*
X03088Y03172*
Y03195*
X031Y03207*
X03124*
X03136Y03195*
Y03183*
X03088*
X02019Y0316D02*
Y03231D01*
X02055*
X02067Y03219*
Y03195*
X02055Y03183*
X02019*
X02091Y0316D02*
X02115D01*
X02103*
Y03231*
X02091*
X02163Y03207D02*
X02187D01*
X02199Y03195*
Y0316*
X02163*
X02151Y03172*
X02163Y03183*
X02199*
X02235Y03219D02*
Y03207D01*
X02223*
X02247*
X02235*
Y03172*
X02247Y0316*
X02319D02*
X02295D01*
X02283Y03172*
Y03195*
X02295Y03207*
X02319*
X02331Y03195*
Y03183*
X02283*
X02403Y03231D02*
Y0316D01*
X02367*
X02355Y03172*
Y03195*
X02367Y03207*
X02403*
X00721Y03231D02*
X00673D01*
Y03195*
X00697*
X00673*
Y0316*
X00745D02*
X00769D01*
X00757*
Y03207*
X00745*
X00805Y0316D02*
Y03207D01*
X00841*
X00853Y03195*
Y0316*
X00877D02*
X00901D01*
X00889*
Y03207*
X00877*
X00937Y0316D02*
X00973D01*
X00985Y03172*
X00973Y03183*
X00949*
X00937Y03195*
X00949Y03207*
X00985*
X01009Y03231D02*
Y0316D01*
Y03195*
X01021Y03207*
X01045*
X01057Y03195*
Y0316*
X01117D02*
X01093D01*
X01081Y03172*
Y03195*
X01093Y03207*
X01117*
X01129Y03195*
Y03183*
X01081*
X01201Y03231D02*
Y0316D01*
X01165*
X01153Y03172*
Y03195*
X01165Y03207*
X01201*
X01297Y03231D02*
Y0316D01*
Y03195*
X01345*
Y03231*
Y0316*
X01381D02*
X01405D01*
X01417Y03172*
Y03195*
X01405Y03207*
X01381*
X01369Y03195*
Y03172*
X01381Y0316*
X01441D02*
X01465D01*
X01453*
Y03231*
X01441*
X01537Y0316D02*
X01513D01*
X01501Y03172*
Y03195*
X01513Y03207*
X01537*
X01549Y03195*
Y03183*
X01501*
X01693Y03219D02*
X01681Y03231D01*
X01657*
X01645Y03219*
Y03207*
X01657Y03195*
X01681*
X01693Y03183*
Y03172*
X01681Y0316*
X01657*
X01645Y03172*
X01717Y0316D02*
X01741D01*
X01729*
Y03207*
X01717*
X01777D02*
X01825D01*
X01777Y0316*
X01825*
X01885D02*
X01861D01*
X01849Y03172*
Y03195*
X01861Y03207*
X01885*
X01897Y03195*
Y03183*
X01849*
X-00024Y03231D02*
Y0316D01*
Y03195*
X00023*
Y03231*
Y0316*
X00047D02*
X00071D01*
X00059*
Y03207*
X00047*
X00119Y03219D02*
Y03207D01*
X00107*
X00131*
X00119*
Y03172*
X00131Y0316*
X00287Y03219D02*
X00275Y03231D01*
X00251*
X00239Y03219*
Y03172*
X00251Y0316*
X00275*
X00287Y03172*
X00323Y0316D02*
X00347D01*
X00359Y03172*
Y03195*
X00347Y03207*
X00323*
X00311Y03195*
Y03172*
X00323Y0316*
X00383Y03207D02*
Y03172D01*
X00395Y0316*
X00431*
Y03207*
X00455Y0316D02*
Y03207D01*
X00491*
X00503Y03195*
Y0316*
X00539Y03219D02*
Y03207D01*
X00527*
X00551*
X00539*
Y03172*
X00551Y0316*
X-00482Y03219D02*
X-00494Y03231D01*
X-00518*
X-0053Y03219*
Y03207*
X-00518Y03195*
X-00494*
X-00482Y03183*
Y03172*
X-00494Y0316*
X-00518*
X-0053Y03172*
X-00458Y03207D02*
Y03172D01*
X-00446Y0316*
X-0041*
Y03148*
X-00422Y03136*
X-00434*
X-0041Y0316D02*
Y03207D01*
X-00386Y0316D02*
Y03207D01*
X-00374*
X-00362Y03195*
Y0316*
Y03195*
X-0035Y03207*
X-00338Y03195*
Y0316*
X-00314Y03231D02*
Y0316D01*
X-00278*
X-00266Y03172*
Y03183*
Y03195*
X-00278Y03207*
X-00314*
X-0023Y0316D02*
X-00206D01*
X-00194Y03172*
Y03195*
X-00206Y03207*
X-0023*
X-00242Y03195*
Y03172*
X-0023Y0316*
X-0017D02*
X-00146D01*
X-00158*
Y03231*
X-0017*
M02*