%FSTAX23Y23*%
%MOIN*%
%SFA1B1*%

%IPPOS*%
%ADD62R,0.068000X0.068000*%
%ADD63C,0.068000*%
%ADD64C,0.108000*%
%ADD65R,0.067060X0.067060*%
%ADD66C,0.067060*%
%ADD67C,0.032000*%
%ADD68C,0.038000*%
%LNsoldermask_bot-1*%
%LPD*%
G54D62*
X006Y004D03*
G54D63*
X007Y003D03*
X008D03*
X009D03*
X01D03*
X011D03*
X012D03*
X013D03*
X014D03*
X015D03*
X016D03*
X017D03*
X018D03*
X019D03*
X006D03*
X007Y004D03*
X008D03*
X009D03*
X01D03*
X011D03*
X012D03*
X013D03*
X014D03*
X015D03*
X019D03*
X017D03*
X016D03*
X018D03*
G54D64*
X024Y005D03*
Y002D03*
X021Y005D03*
Y002D03*
X004Y005D03*
Y002D03*
X001Y005D03*
Y002D03*
G54D65*
X0012Y0193D03*
G54D66*
X0012Y0183D03*
Y0173D03*
Y0163D03*
Y0153D03*
G54D67*
X01535Y0195D03*
X01635Y01945D03*
X01026Y01086D03*
X01015Y0119D03*
X0089Y00765D03*
X00991Y01246D03*
X011Y012D03*
X01405Y01375D03*
X01737Y01427D03*
X0125Y00225D03*
X0115D03*
X01675Y01409D03*
X00385Y01535D03*
X00311D03*
X0115Y00606D03*
X003Y0081D03*
X00268D03*
X00204D03*
X00236D03*
X0092Y00835D03*
X0073Y011D03*
X0093Y012D03*
X0085Y00946D03*
X00075Y0094D03*
X00235D03*
X00395D03*
X00555D03*
X0093Y0062D03*
X0186Y00625D03*
X01365D03*
X01295Y0066D03*
X0077Y0057D03*
X0059D03*
X00948Y0185D03*
X0151Y00475D03*
X01075Y00485D03*
X01097Y00597D03*
X01122Y00637D03*
X00907Y00542D03*
X0176Y0066D03*
X0059Y0129D03*
Y0123D03*
X00475Y00825D03*
X00685Y00785D03*
X00785Y01435D03*
X0076Y01468D03*
X0041Y01675D03*
X00985Y0153D03*
X00885Y0185D03*
X00411Y01761D03*
X00613D03*
X007Y01535D03*
Y01575D03*
X0121Y01425D03*
Y01375D03*
X0125Y00965D03*
X01295Y00825D03*
X0176D03*
X0138Y0069D03*
X0119Y0123D03*
X01225Y015D03*
X0077Y0075D03*
X0073Y01505D03*
X01185Y00965D03*
X01125Y0123D03*
X01195Y0085D03*
X01145Y00895D03*
X01122Y00822D03*
X0205Y0166D03*
Y01755D03*
X01075Y01505D03*
X0112Y01495D03*
X0117Y0195D03*
X0079Y0162D03*
X00825Y0183D03*
X0059Y00825D03*
X0155Y0115D03*
X01542Y01212D03*
X0092Y01405D03*
X0123Y01255D03*
X00925Y01445D03*
X0119Y01285D03*
X01595Y01585D03*
X0152Y0162D03*
X01348Y01706D03*
G54D68*
X0221Y0142D03*
Y0152D03*
M02*