M48
;Layer_Color=9474304
;FILE_FORMAT=2:5
INCH,LZ
;TYPE=PLATED
T1F00S00C0.01200
T2F00S00C0.02000
T3F00S00C0.03543
T4F00S00C0.04000
T5F00S00C0.06000
%
T01
X0059Y0057
X0077
X0090772Y0054272
X01075Y00485
X0109705Y0059795
X0115Y0060623
Y00225
X0125
X0151087Y0047587
X0138Y0069
X0176Y0066
X0186Y00625
X0176Y00825
X0155Y0115
X015425Y012125
X01405Y01375
X01675Y0140945
X0173732Y0142732
X01595Y01585
X0152Y0162
X01535Y0195
X01635Y01945
X0205Y01755
Y0166
X0134854Y0170646
X01225Y015
X0121Y01425
X0121Y01375
X0119Y01285
Y0123
X01125
X011Y012
X0101542Y0119
X0099142Y0124642
X0093Y012
X0102647Y0108604
X01185Y00965
X0125
X01195Y0085
X01145Y00895
X0112264Y0082264
X01295Y00825
Y0066
X01365Y00625
X0112264Y0063736
X0093Y0062
X0089Y00765
X0092Y00835
X0085Y0094625
X0073Y011
X0059Y0123
Y0129
X00785Y01435
X0076Y01468
X0073Y01505
X007Y01535
Y01575
X0079Y0162
X00825Y0183
X00885Y0185
X0094875
X0117Y0195
X0112Y01495
X01075Y01505
X00985Y0153
X00925Y01445
X0092Y01405
X0123Y01255
X0077Y0075
X00685Y00785
X0059Y00825
X00475Y00825
X003Y0081
X00268
X00236
X00204
X00235Y0094
X00075
X00395
X00555
X00385Y01535
X00311
X0041Y01675
X004115Y017615
X006135
T02
X0221Y0142
Y0152
T03
X0012Y0153
Y0163
Y0173
Y0183
Y0193
T04
X006Y003
Y004
X007
Y003
X008
X009
X01
X011
X012
X013
Y004
X012
X011
X01
X009
X008
X014
Y003
X015
X016
X017
X018
X019
Y004
X018
X017
X016
X015
T05
X001Y002
X004
Y005
X001
X021
X024
Y002
X021
M30
