%FSLAX25Y25*%
%MOIN*%
G70*
G01*
G75*
G04 Layer_Color=16711935*
%ADD10R,0.05200X0.04250*%
%ADD11R,0.04250X0.05200*%
%ADD12R,0.03150X0.02362*%
%ADD13R,0.03400X0.03100*%
%ADD14R,0.03100X0.03400*%
%ADD15R,0.03200X0.05000*%
%ADD16R,0.04724X0.01181*%
%ADD17R,0.01181X0.04724*%
%ADD18R,0.01772X0.05709*%
%ADD19O,0.01772X0.05709*%
%ADD20R,0.14000X0.08900*%
%ADD21R,0.04700X0.08600*%
%ADD22R,0.04000X0.05500*%
%ADD23R,0.01600X0.03500*%
%ADD24R,0.02992X0.09449*%
%ADD25O,0.02992X0.09449*%
%ADD26C,0.01200*%
%ADD27C,0.02000*%
%ADD28C,0.03000*%
%ADD29C,0.01000*%
%ADD30C,0.03500*%
%ADD31R,0.06000X0.06000*%
%ADD32C,0.06000*%
%ADD33C,0.10000*%
%ADD34R,0.05906X0.05906*%
%ADD35C,0.05906*%
%ADD36C,0.02400*%
%ADD37C,0.03000*%
%ADD38C,0.04000*%
%ADD39C,0.08000*%
G04:AMPARAMS|DCode=40|XSize=120mil|YSize=120mil|CornerRadius=0mil|HoleSize=0mil|Usage=FLASHONLY|Rotation=0.000|XOffset=0mil|YOffset=0mil|HoleType=Round|Shape=Relief|Width=20mil|Gap=10mil|Entries=4|*
%AMTHD40*
7,0,0,0.12000,0.10000,0.02000,45*
%
%ADD40THD40*%
G04:AMPARAMS|DCode=41|XSize=95.433mil|YSize=95.433mil|CornerRadius=0mil|HoleSize=0mil|Usage=FLASHONLY|Rotation=0.000|XOffset=0mil|YOffset=0mil|HoleType=Round|Shape=Relief|Width=20mil|Gap=10mil|Entries=4|*
%AMTHD41*
7,0,0,0.09543,0.07543,0.02000,45*
%
%ADD41THD41*%
%ADD42C,0.07543*%
G04:AMPARAMS|DCode=43|XSize=72mil|YSize=72mil|CornerRadius=0mil|HoleSize=0mil|Usage=FLASHONLY|Rotation=0.000|XOffset=0mil|YOffset=0mil|HoleType=Round|Shape=Relief|Width=20mil|Gap=10mil|Entries=4|*
%AMTHD43*
7,0,0,0.07200,0.05200,0.02000,45*
%
%ADD43THD43*%
%ADD44C,0.05200*%
G04:AMPARAMS|DCode=45|XSize=80mil|YSize=80mil|CornerRadius=0mil|HoleSize=0mil|Usage=FLASHONLY|Rotation=0.000|XOffset=0mil|YOffset=0mil|HoleType=Round|Shape=Relief|Width=20mil|Gap=10mil|Entries=4|*
%AMTHD45*
7,0,0,0.08000,0.06000,0.02000,45*
%
%ADD45THD45*%
%ADD46R,0.06000X0.05050*%
%ADD47R,0.05050X0.06000*%
%ADD48R,0.03950X0.03162*%
%ADD49R,0.04200X0.03900*%
%ADD50R,0.03900X0.04200*%
%ADD51R,0.04000X0.05800*%
%ADD52R,0.05524X0.01981*%
%ADD53R,0.01981X0.05524*%
%ADD54R,0.02572X0.06509*%
%ADD55O,0.02572X0.06509*%
%ADD56R,0.14800X0.09700*%
%ADD57R,0.05500X0.09400*%
%ADD58R,0.04800X0.06300*%
%ADD59R,0.02400X0.04300*%
%ADD60R,0.03792X0.10249*%
%ADD61O,0.03792X0.10249*%
%ADD62R,0.06800X0.06800*%
%ADD63C,0.06800*%
%ADD64C,0.10800*%
%ADD65R,0.06706X0.06706*%
%ADD66C,0.06706*%
%ADD67C,0.03200*%
%ADD68C,0.03800*%
D62*
X60000Y40000D02*
D03*
D63*
X70000Y30000D02*
D03*
X80000D02*
D03*
X90000D02*
D03*
X100000D02*
D03*
X110000D02*
D03*
X120000D02*
D03*
X130000D02*
D03*
X140000D02*
D03*
X150000D02*
D03*
X160000D02*
D03*
X170000D02*
D03*
X180000D02*
D03*
X190000D02*
D03*
X60000D02*
D03*
X70000Y40000D02*
D03*
X80000D02*
D03*
X90000D02*
D03*
X100000D02*
D03*
X110000D02*
D03*
X120000D02*
D03*
X130000D02*
D03*
X140000D02*
D03*
X150000D02*
D03*
X190000D02*
D03*
X170000D02*
D03*
X160000D02*
D03*
X180000D02*
D03*
D64*
X240000Y50000D02*
D03*
Y20000D02*
D03*
X210000Y50000D02*
D03*
Y20000D02*
D03*
X40000Y50000D02*
D03*
Y20000D02*
D03*
X10000Y50000D02*
D03*
Y20000D02*
D03*
D65*
X12000Y193000D02*
D03*
D66*
Y183000D02*
D03*
Y173000D02*
D03*
Y163000D02*
D03*
Y153000D02*
D03*
D67*
X153500Y195000D02*
D03*
X163500Y194500D02*
D03*
X102647Y108604D02*
D03*
X101542Y119000D02*
D03*
X89000Y76500D02*
D03*
X99142Y124642D02*
D03*
X110000Y120000D02*
D03*
X140500Y137500D02*
D03*
X173732Y142732D02*
D03*
X125000Y22500D02*
D03*
X115000D02*
D03*
X167500Y140945D02*
D03*
X38500Y153500D02*
D03*
X31100D02*
D03*
X115000Y60623D02*
D03*
X30000Y81000D02*
D03*
X26800D02*
D03*
X20400D02*
D03*
X23600D02*
D03*
X92000Y83500D02*
D03*
X73000Y110000D02*
D03*
X93000Y120000D02*
D03*
X85000Y94625D02*
D03*
X7500Y94000D02*
D03*
X23500D02*
D03*
X39500D02*
D03*
X55500D02*
D03*
X93000Y62000D02*
D03*
X186000Y62500D02*
D03*
X136500D02*
D03*
X129500Y66000D02*
D03*
X77000Y57000D02*
D03*
X59000D02*
D03*
X94875Y185000D02*
D03*
X151087Y47587D02*
D03*
X107500Y48500D02*
D03*
X109705Y59795D02*
D03*
X112264Y63736D02*
D03*
X90772Y54272D02*
D03*
X176000Y66000D02*
D03*
X59000Y129000D02*
D03*
Y123000D02*
D03*
X47500Y82500D02*
D03*
X68500Y78500D02*
D03*
X78500Y143500D02*
D03*
X76000Y146800D02*
D03*
X41000Y167500D02*
D03*
X98500Y153000D02*
D03*
X88500Y185000D02*
D03*
X41150Y176150D02*
D03*
X61350D02*
D03*
X70000Y153500D02*
D03*
Y157500D02*
D03*
X121000Y142500D02*
D03*
X121000Y137500D02*
D03*
X125000Y96500D02*
D03*
X129500Y82500D02*
D03*
X176000D02*
D03*
X138000Y69000D02*
D03*
X119000Y123000D02*
D03*
X122500Y150000D02*
D03*
X77000Y75000D02*
D03*
X73000Y150500D02*
D03*
X118500Y96500D02*
D03*
X112500Y123000D02*
D03*
X119500Y85000D02*
D03*
X114500Y89500D02*
D03*
X112264Y82264D02*
D03*
X205000Y166000D02*
D03*
Y175500D02*
D03*
X107500Y150500D02*
D03*
X112000Y149500D02*
D03*
X117000Y195000D02*
D03*
X79000Y162000D02*
D03*
X82500Y183000D02*
D03*
X59000Y82500D02*
D03*
X155000Y115000D02*
D03*
X154250Y121250D02*
D03*
X92000Y140500D02*
D03*
X123000Y125500D02*
D03*
X92500Y144500D02*
D03*
X119000Y128500D02*
D03*
X159500Y158500D02*
D03*
X152000Y162000D02*
D03*
X134854Y170646D02*
D03*
D68*
X221000Y142000D02*
D03*
Y152000D02*
D03*
M02*
