%FSLAX25Y25*%
%MOIN*%
G70*
G01*
G75*
G04 Layer_Color=2752767*
%ADD10R,0.05200X0.04250*%
%ADD11R,0.04250X0.05200*%
%ADD12R,0.03150X0.02362*%
%ADD13R,0.03400X0.03100*%
%ADD14R,0.03100X0.03400*%
%ADD15R,0.03200X0.05000*%
%ADD16R,0.04724X0.01181*%
%ADD17R,0.01181X0.04724*%
%ADD18R,0.01772X0.05709*%
%ADD19O,0.01772X0.05709*%
%ADD20R,0.14000X0.08900*%
%ADD21R,0.04700X0.08600*%
%ADD22R,0.04000X0.05500*%
%ADD23R,0.01600X0.03500*%
%ADD24R,0.02992X0.09449*%
%ADD25O,0.02992X0.09449*%
%ADD26C,0.01200*%
%ADD27C,0.02000*%
%ADD28C,0.03000*%
%ADD29C,0.01000*%
%ADD30C,0.03500*%
%ADD31R,0.06000X0.06000*%
%ADD32C,0.06000*%
%ADD33C,0.10000*%
%ADD34R,0.05906X0.05906*%
%ADD35C,0.05906*%
%ADD36C,0.02400*%
%ADD37C,0.03000*%
%ADD38C,0.04000*%
%ADD39C,0.08000*%
G04:AMPARAMS|DCode=40|XSize=120mil|YSize=120mil|CornerRadius=0mil|HoleSize=0mil|Usage=FLASHONLY|Rotation=0.000|XOffset=0mil|YOffset=0mil|HoleType=Round|Shape=Relief|Width=20mil|Gap=10mil|Entries=4|*
%AMTHD40*
7,0,0,0.12000,0.10000,0.02000,45*
%
%ADD40THD40*%
G04:AMPARAMS|DCode=41|XSize=95.433mil|YSize=95.433mil|CornerRadius=0mil|HoleSize=0mil|Usage=FLASHONLY|Rotation=0.000|XOffset=0mil|YOffset=0mil|HoleType=Round|Shape=Relief|Width=20mil|Gap=10mil|Entries=4|*
%AMTHD41*
7,0,0,0.09543,0.07543,0.02000,45*
%
%ADD41THD41*%
%ADD42C,0.07543*%
G04:AMPARAMS|DCode=43|XSize=72mil|YSize=72mil|CornerRadius=0mil|HoleSize=0mil|Usage=FLASHONLY|Rotation=0.000|XOffset=0mil|YOffset=0mil|HoleType=Round|Shape=Relief|Width=20mil|Gap=10mil|Entries=4|*
%AMTHD43*
7,0,0,0.07200,0.05200,0.02000,45*
%
%ADD43THD43*%
%ADD44C,0.05200*%
G04:AMPARAMS|DCode=45|XSize=80mil|YSize=80mil|CornerRadius=0mil|HoleSize=0mil|Usage=FLASHONLY|Rotation=0.000|XOffset=0mil|YOffset=0mil|HoleType=Round|Shape=Relief|Width=20mil|Gap=10mil|Entries=4|*
%AMTHD45*
7,0,0,0.08000,0.06000,0.02000,45*
%
%ADD45THD45*%
%ADD46R,0.06000X0.05050*%
%ADD47R,0.05050X0.06000*%
%ADD48R,0.03950X0.03162*%
%ADD49R,0.04200X0.03900*%
%ADD50R,0.03900X0.04200*%
%ADD51R,0.04000X0.05800*%
%ADD52R,0.05524X0.01981*%
%ADD53R,0.01981X0.05524*%
%ADD54R,0.02572X0.06509*%
%ADD55O,0.02572X0.06509*%
%ADD56R,0.14800X0.09700*%
%ADD57R,0.05500X0.09400*%
%ADD58R,0.04800X0.06300*%
%ADD59R,0.02400X0.04300*%
%ADD60R,0.03792X0.10249*%
%ADD61O,0.03792X0.10249*%
%ADD62R,0.06800X0.06800*%
%ADD63C,0.06800*%
%ADD64C,0.10800*%
%ADD65R,0.06706X0.06706*%
%ADD66C,0.06706*%
%ADD67C,0.03200*%
%ADD68C,0.03800*%
%ADD69C,0.08000*%
%ADD70C,0.00333*%
%ADD71C,0.01500*%
%ADD72C,0.01600*%
D29*
X252517Y301000D02*
Y306998D01*
X255516D01*
X256516Y305998D01*
Y303999D01*
X255516Y302999D01*
X252517D01*
X254516D02*
X256516Y301000D01*
X259515D02*
X261514D01*
X262514Y302000D01*
Y303999D01*
X261514Y304999D01*
X259515D01*
X258515Y303999D01*
Y302000D01*
X259515Y301000D01*
X264513Y304999D02*
Y302000D01*
X265513Y301000D01*
X268512D01*
Y304999D01*
X270511Y301000D02*
Y304999D01*
X273510D01*
X274510Y303999D01*
Y301000D01*
X280508Y306998D02*
Y301000D01*
X277509D01*
X276509Y302000D01*
Y303999D01*
X277509Y304999D01*
X280508D01*
X252517Y286000D02*
Y291998D01*
X255516D01*
X256516Y290998D01*
Y288999D01*
X255516Y287999D01*
X252517D01*
X254516D02*
X256516Y286000D01*
X259515D02*
X261514D01*
X262514Y287000D01*
Y288999D01*
X261514Y289999D01*
X259515D01*
X258515Y288999D01*
Y287000D01*
X259515Y286000D01*
X264513Y289999D02*
Y287000D01*
X265513Y286000D01*
X268512D01*
Y289999D01*
X270511Y286000D02*
Y289999D01*
X273510D01*
X274510Y288999D01*
Y286000D01*
X280508Y291998D02*
Y286000D01*
X277509D01*
X276509Y287000D01*
Y288999D01*
X277509Y289999D01*
X280508D01*
X252517Y271000D02*
Y276998D01*
X255516D01*
X256516Y275998D01*
Y273999D01*
X255516Y272999D01*
X252517D01*
X254516D02*
X256516Y271000D01*
X259515D02*
X261514D01*
X262514Y272000D01*
Y273999D01*
X261514Y274999D01*
X259515D01*
X258515Y273999D01*
Y272000D01*
X259515Y271000D01*
X264513Y274999D02*
Y272000D01*
X265513Y271000D01*
X268512D01*
Y274999D01*
X270511Y271000D02*
Y274999D01*
X273510D01*
X274510Y273999D01*
Y271000D01*
X280508Y276998D02*
Y271000D01*
X277509D01*
X276509Y272000D01*
Y273999D01*
X277509Y274999D01*
X280508D01*
X252517Y256000D02*
Y261998D01*
X255516D01*
X256516Y260998D01*
Y258999D01*
X255516Y257999D01*
X252517D01*
X254516D02*
X256516Y256000D01*
X259515D02*
X261514D01*
X262514Y257000D01*
Y258999D01*
X261514Y259999D01*
X259515D01*
X258515Y258999D01*
Y257000D01*
X259515Y256000D01*
X264513Y259999D02*
Y257000D01*
X265513Y256000D01*
X268512D01*
Y259999D01*
X270511Y256000D02*
Y259999D01*
X273510D01*
X274510Y258999D01*
Y256000D01*
X280508Y261998D02*
Y256000D01*
X277509D01*
X276509Y257000D01*
Y258999D01*
X277509Y259999D01*
X280508D01*
X252517Y241000D02*
Y246998D01*
X255516D01*
X256516Y245998D01*
Y243999D01*
X255516Y242999D01*
X252517D01*
X254516D02*
X256516Y241000D01*
X259515D02*
X261514D01*
X262514Y242000D01*
Y243999D01*
X261514Y244999D01*
X259515D01*
X258515Y243999D01*
Y242000D01*
X259515Y241000D01*
X264513Y244999D02*
Y242000D01*
X265513Y241000D01*
X268512D01*
Y244999D01*
X270511Y241000D02*
Y244999D01*
X273510D01*
X274510Y243999D01*
Y241000D01*
X280508Y246998D02*
Y241000D01*
X277509D01*
X276509Y242000D01*
Y243999D01*
X277509Y244999D01*
X280508D01*
X201929Y301000D02*
Y306998D01*
X204928D01*
X205928Y305998D01*
Y303999D01*
X204928Y302999D01*
X201929D01*
X207927Y306998D02*
X211926D01*
X209927D01*
Y301000D01*
X213926Y306998D02*
Y301000D01*
Y303999D01*
X217924D01*
Y306998D01*
Y301000D01*
X201929Y286000D02*
Y291998D01*
X204928D01*
X205928Y290998D01*
Y288999D01*
X204928Y287999D01*
X201929D01*
X207927Y291998D02*
X211926D01*
X209927D01*
Y286000D01*
X213926Y291998D02*
Y286000D01*
Y288999D01*
X217924D01*
Y291998D01*
Y286000D01*
X201929Y271000D02*
Y276998D01*
X204928D01*
X205928Y275998D01*
Y273999D01*
X204928Y272999D01*
X201929D01*
X207927Y276998D02*
X211926D01*
X209927D01*
Y271000D01*
X213926Y276998D02*
Y271000D01*
Y273999D01*
X217924D01*
Y276998D01*
Y271000D01*
X201929Y256000D02*
Y261998D01*
X204928D01*
X205928Y260998D01*
Y258999D01*
X204928Y257999D01*
X201929D01*
X207927Y261998D02*
X211926D01*
X209927D01*
Y256000D01*
X213926Y261998D02*
Y256000D01*
Y258999D01*
X217924D01*
Y261998D01*
Y256000D01*
X201929Y241000D02*
Y246998D01*
X204928D01*
X205928Y245998D01*
Y243999D01*
X204928Y242999D01*
X201929D01*
X207927Y246998D02*
X211926D01*
X209927D01*
Y241000D01*
X213926Y246998D02*
Y241000D01*
Y243999D01*
X217924D01*
Y246998D01*
Y241000D01*
X71368Y301000D02*
X67369D01*
X71368Y304999D01*
Y305998D01*
X70368Y306998D01*
X68369D01*
X67369Y305998D01*
X73367D02*
X74367Y306998D01*
X76366D01*
X77366Y305998D01*
Y302000D01*
X76366Y301000D01*
X74367D01*
X73367Y302000D01*
Y305998D01*
X80365Y300000D02*
X81364Y301000D01*
Y302000D01*
X80365D01*
Y301000D01*
X81364D01*
X80365Y300000D01*
X79365Y299001D01*
X85363Y305998D02*
X86363Y306998D01*
X88362D01*
X89362Y305998D01*
Y302000D01*
X88362Y301000D01*
X86363D01*
X85363Y302000D01*
Y305998D01*
X91361D02*
X92361Y306998D01*
X94360D01*
X95360Y305998D01*
Y302000D01*
X94360Y301000D01*
X92361D01*
X91361Y302000D01*
Y305998D01*
X97359Y301000D02*
Y304999D01*
X98359D01*
X99359Y303999D01*
Y301000D01*
Y303999D01*
X100358Y304999D01*
X101358Y303999D01*
Y301000D01*
X103357D02*
X105357D01*
X104357D01*
Y304999D01*
X103357D01*
X108356Y301000D02*
X110355D01*
X109355D01*
Y306998D01*
X108356D01*
X121352Y301000D02*
X119352Y302999D01*
Y304999D01*
X121352Y306998D01*
X124351Y305998D02*
X125350Y306998D01*
X127349D01*
X128349Y305998D01*
Y302000D01*
X127349Y301000D01*
X125350D01*
X124351Y302000D01*
Y305998D01*
X131348Y300000D02*
X132348Y301000D01*
Y302000D01*
X131348D01*
Y301000D01*
X132348D01*
X131348Y300000D01*
X130349Y299001D01*
X140345Y306998D02*
X136347D01*
Y303999D01*
X138346Y304999D01*
X139346D01*
X140345Y303999D01*
Y302000D01*
X139346Y301000D01*
X137346D01*
X136347Y302000D01*
X142345Y305998D02*
X143344Y306998D01*
X145344D01*
X146343Y305998D01*
Y302000D01*
X145344Y301000D01*
X143344D01*
X142345Y302000D01*
Y305998D01*
X148343D02*
X149342Y306998D01*
X151342D01*
X152341Y305998D01*
Y304999D01*
X151342Y303999D01*
X152341Y302999D01*
Y302000D01*
X151342Y301000D01*
X149342D01*
X148343Y302000D01*
Y302999D01*
X149342Y303999D01*
X148343Y304999D01*
Y305998D01*
X149342Y303999D02*
X151342D01*
X154341Y301000D02*
Y304999D01*
X155341D01*
X156340Y303999D01*
Y301000D01*
Y303999D01*
X157340Y304999D01*
X158340Y303999D01*
Y301000D01*
X160339D02*
Y304999D01*
X161338D01*
X162338Y303999D01*
Y301000D01*
Y303999D01*
X163338Y304999D01*
X164338Y303999D01*
Y301000D01*
X166337D02*
X168336Y302999D01*
Y304999D01*
X166337Y306998D01*
X67369Y290998D02*
X68369Y291998D01*
X70368D01*
X71368Y290998D01*
Y289999D01*
X70368Y288999D01*
X69368D01*
X70368D01*
X71368Y287999D01*
Y287000D01*
X70368Y286000D01*
X68369D01*
X67369Y287000D01*
X77366Y291998D02*
X73367D01*
Y288999D01*
X75366Y289999D01*
X76366D01*
X77366Y288999D01*
Y287000D01*
X76366Y286000D01*
X74367D01*
X73367Y287000D01*
X80365Y285000D02*
X81364Y286000D01*
Y287000D01*
X80365D01*
Y286000D01*
X81364D01*
X80365Y285000D01*
X79365Y284001D01*
X88362Y286000D02*
Y291998D01*
X85363Y288999D01*
X89362D01*
X91361Y290998D02*
X92361Y291998D01*
X94360D01*
X95360Y290998D01*
Y289999D01*
X94360Y288999D01*
X93361D01*
X94360D01*
X95360Y287999D01*
Y287000D01*
X94360Y286000D01*
X92361D01*
X91361Y287000D01*
X97359Y286000D02*
Y289999D01*
X98359D01*
X99359Y288999D01*
Y286000D01*
Y288999D01*
X100358Y289999D01*
X101358Y288999D01*
Y286000D01*
X103357D02*
X105357D01*
X104357D01*
Y289999D01*
X103357D01*
X108356Y286000D02*
X110355D01*
X109355D01*
Y291998D01*
X108356D01*
X121352Y286000D02*
X119352Y287999D01*
Y289999D01*
X121352Y291998D01*
X124351Y290998D02*
X125350Y291998D01*
X127349D01*
X128349Y290998D01*
Y287000D01*
X127349Y286000D01*
X125350D01*
X124351Y287000D01*
Y290998D01*
X131348Y285000D02*
X132348Y286000D01*
Y287000D01*
X131348D01*
Y286000D01*
X132348D01*
X131348Y285000D01*
X130349Y284001D01*
X136347Y287000D02*
X137346Y286000D01*
X139346D01*
X140345Y287000D01*
Y290998D01*
X139346Y291998D01*
X137346D01*
X136347Y290998D01*
Y289999D01*
X137346Y288999D01*
X140345D01*
X142345Y290998D02*
X143344Y291998D01*
X145344D01*
X146343Y290998D01*
Y287000D01*
X145344Y286000D01*
X143344D01*
X142345Y287000D01*
Y290998D01*
X148343D02*
X149342Y291998D01*
X151342D01*
X152341Y290998D01*
Y287000D01*
X151342Y286000D01*
X149342D01*
X148343Y287000D01*
Y290998D01*
X154341Y286000D02*
Y289999D01*
X155341D01*
X156340Y288999D01*
Y286000D01*
Y288999D01*
X157340Y289999D01*
X158340Y288999D01*
Y286000D01*
X160339D02*
Y289999D01*
X161338D01*
X162338Y288999D01*
Y286000D01*
Y288999D01*
X163338Y289999D01*
X164338Y288999D01*
Y286000D01*
X166337D02*
X168336Y287999D01*
Y289999D01*
X166337Y291998D01*
X71368Y276998D02*
X69368Y275998D01*
X67369Y273999D01*
Y272000D01*
X68369Y271000D01*
X70368D01*
X71368Y272000D01*
Y272999D01*
X70368Y273999D01*
X67369D01*
X73367Y275998D02*
X74367Y276998D01*
X76366D01*
X77366Y275998D01*
Y272000D01*
X76366Y271000D01*
X74367D01*
X73367Y272000D01*
Y275998D01*
X80365Y270000D02*
X81364Y271000D01*
Y272000D01*
X80365D01*
Y271000D01*
X81364D01*
X80365Y270000D01*
X79365Y269001D01*
X85363Y275998D02*
X86363Y276998D01*
X88362D01*
X89362Y275998D01*
Y272000D01*
X88362Y271000D01*
X86363D01*
X85363Y272000D01*
Y275998D01*
X91361D02*
X92361Y276998D01*
X94360D01*
X95360Y275998D01*
Y272000D01*
X94360Y271000D01*
X92361D01*
X91361Y272000D01*
Y275998D01*
X97359Y271000D02*
Y274999D01*
X98359D01*
X99359Y273999D01*
Y271000D01*
Y273999D01*
X100358Y274999D01*
X101358Y273999D01*
Y271000D01*
X103357D02*
X105357D01*
X104357D01*
Y274999D01*
X103357D01*
X108356Y271000D02*
X110355D01*
X109355D01*
Y276998D01*
X108356D01*
X121352Y271000D02*
X119352Y272999D01*
Y274999D01*
X121352Y276998D01*
X124351Y271000D02*
X126350D01*
X125350D01*
Y276998D01*
X124351Y275998D01*
X130349Y270000D02*
X131348Y271000D01*
Y272000D01*
X130349D01*
Y271000D01*
X131348D01*
X130349Y270000D01*
X129349Y269001D01*
X139346Y276998D02*
X135347D01*
Y273999D01*
X137346Y274999D01*
X138346D01*
X139346Y273999D01*
Y272000D01*
X138346Y271000D01*
X136347D01*
X135347Y272000D01*
X145344Y271000D02*
X141345D01*
X145344Y274999D01*
Y275998D01*
X144344Y276998D01*
X142345D01*
X141345Y275998D01*
X150342Y271000D02*
Y276998D01*
X147343Y273999D01*
X151342D01*
X153341Y271000D02*
Y274999D01*
X154341D01*
X155341Y273999D01*
Y271000D01*
Y273999D01*
X156340Y274999D01*
X157340Y273999D01*
Y271000D01*
X159339D02*
Y274999D01*
X160339D01*
X161338Y273999D01*
Y271000D01*
Y273999D01*
X162338Y274999D01*
X163338Y273999D01*
Y271000D01*
X165337D02*
X167337Y272999D01*
Y274999D01*
X165337Y276998D01*
X70368Y256000D02*
Y261998D01*
X67369Y258999D01*
X71368D01*
X73367Y260998D02*
X74367Y261998D01*
X76366D01*
X77366Y260998D01*
Y257000D01*
X76366Y256000D01*
X74367D01*
X73367Y257000D01*
Y260998D01*
X80365Y255000D02*
X81364Y256000D01*
Y257000D01*
X80365D01*
Y256000D01*
X81364D01*
X80365Y255000D01*
X79365Y254001D01*
X85363Y260998D02*
X86363Y261998D01*
X88362D01*
X89362Y260998D01*
Y257000D01*
X88362Y256000D01*
X86363D01*
X85363Y257000D01*
Y260998D01*
X91361D02*
X92361Y261998D01*
X94360D01*
X95360Y260998D01*
Y257000D01*
X94360Y256000D01*
X92361D01*
X91361Y257000D01*
Y260998D01*
X97359Y256000D02*
Y259999D01*
X98359D01*
X99359Y258999D01*
Y256000D01*
Y258999D01*
X100358Y259999D01*
X101358Y258999D01*
Y256000D01*
X103357D02*
X105357D01*
X104357D01*
Y259999D01*
X103357D01*
X108356Y256000D02*
X110355D01*
X109355D01*
Y261998D01*
X108356D01*
X121352Y256000D02*
X119352Y257999D01*
Y259999D01*
X121352Y261998D01*
X124351Y256000D02*
X126350D01*
X125350D01*
Y261998D01*
X124351Y260998D01*
X130349Y255000D02*
X131348Y256000D01*
Y257000D01*
X130349D01*
Y256000D01*
X131348D01*
X130349Y255000D01*
X129349Y254001D01*
X135347Y260998D02*
X136347Y261998D01*
X138346D01*
X139346Y260998D01*
Y257000D01*
X138346Y256000D01*
X136347D01*
X135347Y257000D01*
Y260998D01*
X141345Y256000D02*
X143344D01*
X142345D01*
Y261998D01*
X141345Y260998D01*
X150342Y261998D02*
X148343Y260998D01*
X146343Y258999D01*
Y257000D01*
X147343Y256000D01*
X149342D01*
X150342Y257000D01*
Y257999D01*
X149342Y258999D01*
X146343D01*
X152341Y256000D02*
Y259999D01*
X153341D01*
X154341Y258999D01*
Y256000D01*
Y258999D01*
X155341Y259999D01*
X156340Y258999D01*
Y256000D01*
X158340D02*
Y259999D01*
X159339D01*
X160339Y258999D01*
Y256000D01*
Y258999D01*
X161338Y259999D01*
X162338Y258999D01*
Y256000D01*
X164338D02*
X166337Y257999D01*
Y259999D01*
X164338Y261998D01*
X67369Y241000D02*
X69368D01*
X68369D01*
Y246998D01*
X67369Y245998D01*
X76366Y241000D02*
X72367D01*
X76366Y244999D01*
Y245998D01*
X75366Y246998D01*
X73367D01*
X72367Y245998D01*
X79365Y240000D02*
X80365Y241000D01*
Y242000D01*
X79365D01*
Y241000D01*
X80365D01*
X79365Y240000D01*
X78365Y239001D01*
X84363Y245998D02*
X85363Y246998D01*
X87362D01*
X88362Y245998D01*
Y242000D01*
X87362Y241000D01*
X85363D01*
X84363Y242000D01*
Y245998D01*
X90361D02*
X91361Y246998D01*
X93361D01*
X94360Y245998D01*
Y242000D01*
X93361Y241000D01*
X91361D01*
X90361Y242000D01*
Y245998D01*
X96360Y241000D02*
Y244999D01*
X97359D01*
X98359Y243999D01*
Y241000D01*
Y243999D01*
X99359Y244999D01*
X100358Y243999D01*
Y241000D01*
X102358D02*
X104357D01*
X103357D01*
Y244999D01*
X102358D01*
X107356Y241000D02*
X109355D01*
X108356D01*
Y246998D01*
X107356D01*
X120352Y241000D02*
X118352Y242999D01*
Y244999D01*
X120352Y246998D01*
X123351Y245998D02*
X124351Y246998D01*
X126350D01*
X127349Y245998D01*
Y242000D01*
X126350Y241000D01*
X124351D01*
X123351Y242000D01*
Y245998D01*
X130349Y240000D02*
X131348Y241000D01*
Y242000D01*
X130349D01*
Y241000D01*
X131348D01*
X130349Y240000D01*
X129349Y239001D01*
X135347Y245998D02*
X136347Y246998D01*
X138346D01*
X139346Y245998D01*
Y244999D01*
X138346Y243999D01*
X137346D01*
X138346D01*
X139346Y242999D01*
Y242000D01*
X138346Y241000D01*
X136347D01*
X135347Y242000D01*
X141345Y245998D02*
X142345Y246998D01*
X144344D01*
X145344Y245998D01*
Y242000D01*
X144344Y241000D01*
X142345D01*
X141345Y242000D01*
Y245998D01*
X151342Y246998D02*
X147343D01*
Y243999D01*
X149342Y244999D01*
X150342D01*
X151342Y243999D01*
Y242000D01*
X150342Y241000D01*
X148343D01*
X147343Y242000D01*
X153341Y241000D02*
Y244999D01*
X154341D01*
X155341Y243999D01*
Y241000D01*
Y243999D01*
X156340Y244999D01*
X157340Y243999D01*
Y241000D01*
X159339D02*
Y244999D01*
X160339D01*
X161338Y243999D01*
Y241000D01*
Y243999D01*
X162338Y244999D01*
X163338Y243999D01*
Y241000D01*
X165337D02*
X167337Y242999D01*
Y244999D01*
X165337Y246998D01*
X-2412Y226000D02*
X-413D01*
X-1413D01*
Y231998D01*
X-2412Y230998D01*
X6585Y226000D02*
X2586D01*
X6585Y229999D01*
Y230998D01*
X5585Y231998D01*
X3586D01*
X2586Y230998D01*
X8584D02*
X9584Y231998D01*
X11583D01*
X12583Y230998D01*
Y229999D01*
X11583Y228999D01*
X12583Y227999D01*
Y227000D01*
X11583Y226000D01*
X9584D01*
X8584Y227000D01*
Y227999D01*
X9584Y228999D01*
X8584Y229999D01*
Y230998D01*
X9584Y228999D02*
X11583D01*
X20580Y231998D02*
X24579D01*
X22580D01*
Y226000D01*
X27578D02*
X29577D01*
X30577Y227000D01*
Y228999D01*
X29577Y229999D01*
X27578D01*
X26578Y228999D01*
Y227000D01*
X27578Y226000D01*
X33576Y230998D02*
Y229999D01*
X32576D01*
X34576D01*
X33576D01*
Y227000D01*
X34576Y226000D01*
X38574Y229999D02*
X40574D01*
X41573Y228999D01*
Y226000D01*
X38574D01*
X37575Y227000D01*
X38574Y227999D01*
X41573D01*
X43573Y226000D02*
X45572D01*
X44572D01*
Y231998D01*
X43573D01*
X1586Y301000D02*
X-2412D01*
X1586Y304999D01*
Y305998D01*
X587Y306998D01*
X-1413D01*
X-2412Y305998D01*
X1586Y291998D02*
X-2412D01*
Y288999D01*
X-413Y289999D01*
X587D01*
X1586Y288999D01*
Y287000D01*
X587Y286000D01*
X-1413D01*
X-2412Y287000D01*
Y275998D02*
X-1413Y276998D01*
X587D01*
X1586Y275998D01*
Y274999D01*
X587Y273999D01*
X1586Y272999D01*
Y272000D01*
X587Y271000D01*
X-1413D01*
X-2412Y272000D01*
Y272999D01*
X-1413Y273999D01*
X-2412Y274999D01*
Y275998D01*
X-1413Y273999D02*
X587D01*
X1586Y256000D02*
X-2412D01*
X1586Y259999D01*
Y260998D01*
X587Y261998D01*
X-1413D01*
X-2412Y260998D01*
X3586D02*
X4585Y261998D01*
X6585D01*
X7584Y260998D01*
Y259999D01*
X6585Y258999D01*
X7584Y257999D01*
Y257000D01*
X6585Y256000D01*
X4585D01*
X3586Y257000D01*
Y257999D01*
X4585Y258999D01*
X3586Y259999D01*
Y260998D01*
X4585Y258999D02*
X6585D01*
X-2412Y245998D02*
X-1413Y246998D01*
X587D01*
X1586Y245998D01*
Y244999D01*
X587Y243999D01*
X1586Y242999D01*
Y242000D01*
X587Y241000D01*
X-1413D01*
X-2412Y242000D01*
Y242999D01*
X-1413Y243999D01*
X-2412Y244999D01*
Y245998D01*
X-1413Y243999D02*
X587D01*
X7584Y246998D02*
X3586D01*
Y243999D01*
X5585Y244999D01*
X6585D01*
X7584Y243999D01*
Y242000D01*
X6585Y241000D01*
X4585D01*
X3586Y242000D01*
D70*
X-50187Y303500D02*
G03*
X-50187Y303500I-2500J0D01*
G01*
X222667Y152000D02*
G03*
X222667Y152000I-1667J0D01*
G01*
Y142000D02*
G03*
X222667Y142000I-1667J0D01*
G01*
X-53938Y287250D02*
X-52688Y286000D01*
X-55187Y287250D02*
X-53938D01*
X-55187D02*
X-53938Y288500D01*
X-55187Y289750D02*
X-53938Y288500D01*
X-55187Y289750D02*
X-53938D01*
X-52688Y291000D01*
X-51437Y289750D01*
X-50187D01*
X-51437Y288500D02*
X-50187Y289750D01*
X-51437Y288500D02*
X-50187Y287250D01*
X-51437D02*
X-50187D01*
X-52688Y286000D02*
X-51437Y287250D01*
X-55187Y271000D02*
X-52688Y272250D01*
X-50187Y271000D01*
X-51437Y273500D02*
X-50187Y271000D01*
X-51437Y273500D02*
X-50187Y276000D01*
X-52688Y274750D02*
X-50187Y276000D01*
X-55187D02*
X-52688Y274750D01*
X-55187Y276000D02*
X-53938Y273500D01*
X-55187Y271000D02*
X-53938Y273500D01*
X-55187Y256000D02*
X-50187D01*
Y261000D01*
X-55187D02*
X-50187D01*
X-55187Y256000D02*
Y261000D01*
X-52688Y241000D02*
X-50187Y246000D01*
X-55187D02*
X-50187D01*
X-55187D02*
X-52688Y241000D01*
X134854Y168979D02*
X136521Y172312D01*
X133188D02*
X136521D01*
X133188D02*
X134854Y168979D01*
X152000Y160333D02*
X153667Y163667D01*
X150333D02*
X153667D01*
X150333D02*
X152000Y160333D01*
X159500Y156833D02*
X161167Y160167D01*
X157833D02*
X161167D01*
X157833D02*
X159500Y156833D01*
X119000Y126833D02*
X120667Y130167D01*
X117333D02*
X120667D01*
X117333D02*
X119000Y126833D01*
X92500Y142833D02*
X94167Y146167D01*
X90833D02*
X94167D01*
X90833D02*
X92500Y142833D01*
X123000Y123833D02*
X124667Y127167D01*
X121333D02*
X124667D01*
X121333D02*
X123000Y123833D01*
X92000Y138833D02*
X93667Y142167D01*
X90333D02*
X93667D01*
X90333D02*
X92000Y138833D01*
X154250Y119583D02*
X155917Y122917D01*
X152583D02*
X155917D01*
X152583D02*
X154250Y119583D01*
X155000Y113333D02*
X156667Y116667D01*
X153333D02*
X156667D01*
X153333D02*
X155000Y113333D01*
X59000Y80833D02*
X60667Y84167D01*
X57333D02*
X60667D01*
X57333D02*
X59000Y80833D01*
X82500Y181333D02*
X84167Y184667D01*
X80833D02*
X84167D01*
X80833D02*
X82500Y181333D01*
X79000Y160333D02*
X80667Y163667D01*
X77333D02*
X80667D01*
X77333D02*
X79000Y160333D01*
X117000Y193333D02*
X118667Y196667D01*
X115333D02*
X118667D01*
X115333D02*
X117000Y193333D01*
X112000Y147833D02*
X113667Y151167D01*
X110333D02*
X113667D01*
X110333D02*
X112000Y147833D01*
X107500Y148833D02*
X109167Y152167D01*
X105833D02*
X109167D01*
X105833D02*
X107500Y148833D01*
X205000Y173833D02*
X206667Y177167D01*
X203333D02*
X206667D01*
X203333D02*
X205000Y173833D01*
Y164333D02*
X206667Y167667D01*
X203333D02*
X206667D01*
X203333D02*
X205000Y164333D01*
X112264Y80597D02*
X113930Y83930D01*
X110597D02*
X113930D01*
X110597D02*
X112264Y80597D01*
X114500Y87833D02*
X116167Y91167D01*
X112833D02*
X116167D01*
X112833D02*
X114500Y87833D01*
X119500Y83333D02*
X121167Y86667D01*
X117833D02*
X121167D01*
X117833D02*
X119500Y83333D01*
X112500Y121333D02*
X114167Y124667D01*
X110833D02*
X114167D01*
X110833D02*
X112500Y121333D01*
X118500Y94833D02*
X120167Y98167D01*
X116833D02*
X120167D01*
X116833D02*
X118500Y94833D01*
X73000Y148833D02*
X74667Y152167D01*
X71333D02*
X74667D01*
X71333D02*
X73000Y148833D01*
X77000Y73333D02*
X78667Y76667D01*
X75333D02*
X78667D01*
X75333D02*
X77000Y73333D01*
X122500Y148333D02*
X124167Y151667D01*
X120833D02*
X124167D01*
X120833D02*
X122500Y148333D01*
X119000Y121333D02*
X120667Y124667D01*
X117333D02*
X120667D01*
X117333D02*
X119000Y121333D01*
X138000Y67333D02*
X139667Y70667D01*
X136333D02*
X139667D01*
X136333D02*
X138000Y67333D01*
X176000Y80833D02*
X177667Y84167D01*
X174333D02*
X177667D01*
X174333D02*
X176000Y80833D01*
X129500D02*
X131167Y84167D01*
X127833D02*
X131167D01*
X127833D02*
X129500Y80833D01*
X125000Y94833D02*
X126667Y98167D01*
X123333D02*
X126667D01*
X123333D02*
X125000Y94833D01*
X121000Y135833D02*
X122667Y139167D01*
X119333D02*
X122667D01*
X119333D02*
X121000Y135833D01*
X121000Y140833D02*
X122667Y144167D01*
X119333D02*
X122667D01*
X119333D02*
X121000Y140833D01*
X70000Y155833D02*
X71667Y159167D01*
X68333D02*
X71667D01*
X68333D02*
X70000Y155833D01*
Y151833D02*
X71667Y155167D01*
X68333D02*
X71667D01*
X68333D02*
X70000Y151833D01*
X61350Y174483D02*
X63017Y177817D01*
X59683D02*
X63017D01*
X59683D02*
X61350Y174483D01*
X41150D02*
X42817Y177817D01*
X39483D02*
X42817D01*
X39483D02*
X41150Y174483D01*
X88500Y183333D02*
X90167Y186667D01*
X86833D02*
X90167D01*
X86833D02*
X88500Y183333D01*
X98500Y151333D02*
X100167Y154667D01*
X96833D02*
X100167D01*
X96833D02*
X98500Y151333D01*
X41000Y165833D02*
X42667Y169167D01*
X39333D02*
X42667D01*
X39333D02*
X41000Y165833D01*
X76000Y145133D02*
X77667Y148467D01*
X74333D02*
X77667D01*
X74333D02*
X76000Y145133D01*
X78500Y141833D02*
X80167Y145167D01*
X76833D02*
X80167D01*
X76833D02*
X78500Y141833D01*
X68500Y76833D02*
X70167Y80167D01*
X66833D02*
X70167D01*
X66833D02*
X68500Y76833D01*
X47500Y80833D02*
X49167Y84167D01*
X45833D02*
X49167D01*
X45833D02*
X47500Y80833D01*
X59000Y121333D02*
X60667Y124667D01*
X57333D02*
X60667D01*
X57333D02*
X59000Y121333D01*
Y127333D02*
X60667Y130667D01*
X57333D02*
X60667D01*
X57333D02*
X59000Y127333D01*
X176000Y64333D02*
X177667Y67667D01*
X174333D02*
X177667D01*
X174333D02*
X176000Y64333D01*
X90772Y52605D02*
X92438Y55938D01*
X89105D02*
X92438D01*
X89105D02*
X90772Y52605D01*
X112264Y62070D02*
X113930Y65403D01*
X110597D02*
X113930D01*
X110597D02*
X112264Y62070D01*
X109705Y58129D02*
X111371Y61462D01*
X108038D02*
X111371D01*
X108038D02*
X109705Y58129D01*
X107500Y46833D02*
X109167Y50167D01*
X105833D02*
X109167D01*
X105833D02*
X107500Y46833D01*
X151087Y45920D02*
X152753Y49253D01*
X149420D02*
X152753D01*
X149420D02*
X151087Y45920D01*
X94875Y183333D02*
X96542Y186667D01*
X93208D02*
X96542D01*
X93208D02*
X94875Y183333D01*
X59000Y55333D02*
X60667Y58667D01*
X57333D02*
X60667D01*
X57333D02*
X59000Y55333D01*
X77000D02*
X78667Y58667D01*
X75333D02*
X78667D01*
X75333D02*
X77000Y55333D01*
X129500Y64333D02*
X131167Y67667D01*
X127833D02*
X131167D01*
X127833D02*
X129500Y64333D01*
X136500Y60833D02*
X138167Y64167D01*
X134833D02*
X138167D01*
X134833D02*
X136500Y60833D01*
X186000D02*
X187667Y64167D01*
X184333D02*
X187667D01*
X184333D02*
X186000Y60833D01*
X93000Y60333D02*
X94667Y63667D01*
X91333D02*
X94667D01*
X91333D02*
X93000Y60333D01*
X55500Y92333D02*
X57167Y95667D01*
X53833D02*
X57167D01*
X53833D02*
X55500Y92333D01*
X39500D02*
X41167Y95667D01*
X37833D02*
X41167D01*
X37833D02*
X39500Y92333D01*
X23500D02*
X25167Y95667D01*
X21833D02*
X25167D01*
X21833D02*
X23500Y92333D01*
X7500D02*
X9167Y95667D01*
X5833D02*
X9167D01*
X5833D02*
X7500Y92333D01*
X85000Y92958D02*
X86667Y96292D01*
X83333D02*
X86667D01*
X83333D02*
X85000Y92958D01*
X93000Y118333D02*
X94667Y121667D01*
X91333D02*
X94667D01*
X91333D02*
X93000Y118333D01*
X73000Y108333D02*
X74667Y111667D01*
X71333D02*
X74667D01*
X71333D02*
X73000Y108333D01*
X92000Y81833D02*
X93667Y85167D01*
X90333D02*
X93667D01*
X90333D02*
X92000Y81833D01*
X23600Y79333D02*
X25267Y82667D01*
X21933D02*
X25267D01*
X21933D02*
X23600Y79333D01*
X20400D02*
X22067Y82667D01*
X18733D02*
X22067D01*
X18733D02*
X20400Y79333D01*
X26800D02*
X28467Y82667D01*
X25133D02*
X28467D01*
X25133D02*
X26800Y79333D01*
X30000D02*
X31667Y82667D01*
X28333D02*
X31667D01*
X28333D02*
X30000Y79333D01*
X115000Y58956D02*
X116667Y62290D01*
X113333D02*
X116667D01*
X113333D02*
X115000Y58956D01*
X31100Y151833D02*
X32767Y155167D01*
X29433D02*
X32767D01*
X29433D02*
X31100Y151833D01*
X38500D02*
X40167Y155167D01*
X36833D02*
X40167D01*
X36833D02*
X38500Y151833D01*
X167500Y139278D02*
X169167Y142612D01*
X165833D02*
X169167D01*
X165833D02*
X167500Y139278D01*
X115000Y20833D02*
X116667Y24167D01*
X113333D02*
X116667D01*
X113333D02*
X115000Y20833D01*
X125000D02*
X126667Y24167D01*
X123333D02*
X126667D01*
X123333D02*
X125000Y20833D01*
X173732Y141066D02*
X175399Y144399D01*
X172066D02*
X175399D01*
X172066D02*
X173732Y141066D01*
X140500Y135833D02*
X142167Y139167D01*
X138833D02*
X142167D01*
X138833D02*
X140500Y135833D01*
X110000Y118333D02*
X111667Y121667D01*
X108333D02*
X111667D01*
X108333D02*
X110000Y118333D01*
X99142Y122975D02*
X100808Y126308D01*
X97475D02*
X100808D01*
X97475D02*
X99142Y122975D01*
X89000Y74833D02*
X90667Y78167D01*
X87333D02*
X90667D01*
X87333D02*
X89000Y74833D01*
X101542Y117333D02*
X103208Y120667D01*
X99875D02*
X103208D01*
X99875D02*
X101542Y117333D01*
X102647Y106937D02*
X104314Y110271D01*
X100981D02*
X104314D01*
X100981D02*
X102647Y106937D01*
X163500Y192833D02*
X165167Y196167D01*
X161833D02*
X165167D01*
X161833D02*
X163500Y192833D01*
X153500Y193333D02*
X155167Y196667D01*
X151833D02*
X155167D01*
X151833D02*
X153500Y193333D01*
X11167Y152167D02*
X12000Y151333D01*
X10333Y152167D02*
X11167D01*
X10333D02*
X11167Y153000D01*
X10333Y153833D02*
X11167Y153000D01*
X10333Y153833D02*
X11167D01*
X12000Y154667D01*
X12833Y153833D01*
X13667D01*
X12833Y153000D02*
X13667Y153833D01*
X12833Y153000D02*
X13667Y152167D01*
X12833D02*
X13667D01*
X12000Y151333D02*
X12833Y152167D01*
X11167Y162167D02*
X12000Y161333D01*
X10333Y162167D02*
X11167D01*
X10333D02*
X11167Y163000D01*
X10333Y163833D02*
X11167Y163000D01*
X10333Y163833D02*
X11167D01*
X12000Y164667D01*
X12833Y163833D01*
X13667D01*
X12833Y163000D02*
X13667Y163833D01*
X12833Y163000D02*
X13667Y162167D01*
X12833D02*
X13667D01*
X12000Y161333D02*
X12833Y162167D01*
X11167Y172167D02*
X12000Y171333D01*
X10333Y172167D02*
X11167D01*
X10333D02*
X11167Y173000D01*
X10333Y173833D02*
X11167Y173000D01*
X10333Y173833D02*
X11167D01*
X12000Y174667D01*
X12833Y173833D01*
X13667D01*
X12833Y173000D02*
X13667Y173833D01*
X12833Y173000D02*
X13667Y172167D01*
X12833D02*
X13667D01*
X12000Y171333D02*
X12833Y172167D01*
X11167Y182167D02*
X12000Y181333D01*
X10333Y182167D02*
X11167D01*
X10333D02*
X11167Y183000D01*
X10333Y183833D02*
X11167Y183000D01*
X10333Y183833D02*
X11167D01*
X12000Y184667D01*
X12833Y183833D01*
X13667D01*
X12833Y183000D02*
X13667Y183833D01*
X12833Y183000D02*
X13667Y182167D01*
X12833D02*
X13667D01*
X12000Y181333D02*
X12833Y182167D01*
X11167Y192167D02*
X12000Y191333D01*
X10333Y192167D02*
X11167D01*
X10333D02*
X11167Y193000D01*
X10333Y193833D02*
X11167Y193000D01*
X10333Y193833D02*
X11167D01*
X12000Y194667D01*
X12833Y193833D01*
X13667D01*
X12833Y193000D02*
X13667Y193833D01*
X12833Y193000D02*
X13667Y192167D01*
X12833D02*
X13667D01*
X12000Y191333D02*
X12833Y192167D01*
X8333Y18333D02*
X10000Y19167D01*
X11667Y18333D01*
X10833Y20000D02*
X11667Y18333D01*
X10833Y20000D02*
X11667Y21667D01*
X10000Y20833D02*
X11667Y21667D01*
X8333D02*
X10000Y20833D01*
X8333Y21667D02*
X9167Y20000D01*
X8333Y18333D02*
X9167Y20000D01*
X8333Y48333D02*
X10000Y49167D01*
X11667Y48333D01*
X10833Y50000D02*
X11667Y48333D01*
X10833Y50000D02*
X11667Y51667D01*
X10000Y50833D02*
X11667Y51667D01*
X8333D02*
X10000Y50833D01*
X8333Y51667D02*
X9167Y50000D01*
X8333Y48333D02*
X9167Y50000D01*
X38333Y18333D02*
X40000Y19167D01*
X41667Y18333D01*
X40833Y20000D02*
X41667Y18333D01*
X40833Y20000D02*
X41667Y21667D01*
X40000Y20833D02*
X41667Y21667D01*
X38333D02*
X40000Y20833D01*
X38333Y21667D02*
X39167Y20000D01*
X38333Y18333D02*
X39167Y20000D01*
X38333Y48333D02*
X40000Y49167D01*
X41667Y48333D01*
X40833Y50000D02*
X41667Y48333D01*
X40833Y50000D02*
X41667Y51667D01*
X40000Y50833D02*
X41667Y51667D01*
X38333D02*
X40000Y50833D01*
X38333Y51667D02*
X39167Y50000D01*
X38333Y48333D02*
X39167Y50000D01*
X208333Y18333D02*
X210000Y19167D01*
X211667Y18333D01*
X210833Y20000D02*
X211667Y18333D01*
X210833Y20000D02*
X211667Y21667D01*
X210000Y20833D02*
X211667Y21667D01*
X208333D02*
X210000Y20833D01*
X208333Y21667D02*
X209167Y20000D01*
X208333Y18333D02*
X209167Y20000D01*
X208333Y48333D02*
X210000Y49167D01*
X211667Y48333D01*
X210833Y50000D02*
X211667Y48333D01*
X210833Y50000D02*
X211667Y51667D01*
X210000Y50833D02*
X211667Y51667D01*
X208333D02*
X210000Y50833D01*
X208333Y51667D02*
X209167Y50000D01*
X208333Y48333D02*
X209167Y50000D01*
X238333Y18333D02*
X240000Y19167D01*
X241667Y18333D01*
X240833Y20000D02*
X241667Y18333D01*
X240833Y20000D02*
X241667Y21667D01*
X240000Y20833D02*
X241667Y21667D01*
X238333D02*
X240000Y20833D01*
X238333Y21667D02*
X239167Y20000D01*
X238333Y18333D02*
X239167Y20000D01*
X238333Y48333D02*
X240000Y49167D01*
X241667Y48333D01*
X240833Y50000D02*
X241667Y48333D01*
X240833Y50000D02*
X241667Y51667D01*
X240000Y50833D02*
X241667Y51667D01*
X238333D02*
X240000Y50833D01*
X238333Y51667D02*
X239167Y50000D01*
X238333Y48333D02*
X239167Y50000D01*
X178333Y38333D02*
X181667D01*
Y41667D01*
X178333D02*
X181667D01*
X178333Y38333D02*
Y41667D01*
X158333Y38333D02*
X161667D01*
Y41667D01*
X158333D02*
X161667D01*
X158333Y38333D02*
Y41667D01*
X168333Y38333D02*
X171667D01*
Y41667D01*
X168333D02*
X171667D01*
X168333Y38333D02*
Y41667D01*
X188333Y38333D02*
X191667D01*
Y41667D01*
X188333D02*
X191667D01*
X188333Y38333D02*
Y41667D01*
X148333Y38333D02*
X151667D01*
Y41667D01*
X148333D02*
X151667D01*
X148333Y38333D02*
Y41667D01*
X138333Y38333D02*
X141667D01*
Y41667D01*
X138333D02*
X141667D01*
X138333Y38333D02*
Y41667D01*
X128333Y38333D02*
X131667D01*
Y41667D01*
X128333D02*
X131667D01*
X128333Y38333D02*
Y41667D01*
X118333Y38333D02*
X121667D01*
Y41667D01*
X118333D02*
X121667D01*
X118333Y38333D02*
Y41667D01*
X108333Y38333D02*
X111667D01*
Y41667D01*
X108333D02*
X111667D01*
X108333Y38333D02*
Y41667D01*
X98333Y38333D02*
X101667D01*
Y41667D01*
X98333D02*
X101667D01*
X98333Y38333D02*
Y41667D01*
X88333Y38333D02*
X91667D01*
Y41667D01*
X88333D02*
X91667D01*
X88333Y38333D02*
Y41667D01*
X78333Y38333D02*
X81667D01*
Y41667D01*
X78333D02*
X81667D01*
X78333Y38333D02*
Y41667D01*
X68333Y38333D02*
X71667D01*
Y41667D01*
X68333D02*
X71667D01*
X68333Y38333D02*
Y41667D01*
X58333Y28333D02*
X61667D01*
Y31667D01*
X58333D02*
X61667D01*
X58333Y28333D02*
Y31667D01*
X188333Y28333D02*
X191667D01*
Y31667D01*
X188333D02*
X191667D01*
X188333Y28333D02*
Y31667D01*
X178333Y28333D02*
X181667D01*
Y31667D01*
X178333D02*
X181667D01*
X178333Y28333D02*
Y31667D01*
X168333Y28333D02*
X171667D01*
Y31667D01*
X168333D02*
X171667D01*
X168333Y28333D02*
Y31667D01*
X158333Y28333D02*
X161667D01*
Y31667D01*
X158333D02*
X161667D01*
X158333Y28333D02*
Y31667D01*
X148333Y28333D02*
X151667D01*
Y31667D01*
X148333D02*
X151667D01*
X148333Y28333D02*
Y31667D01*
X138333Y28333D02*
X141667D01*
Y31667D01*
X138333D02*
X141667D01*
X138333Y28333D02*
Y31667D01*
X128333Y28333D02*
X131667D01*
Y31667D01*
X128333D02*
X131667D01*
X128333Y28333D02*
Y31667D01*
X118333Y28333D02*
X121667D01*
Y31667D01*
X118333D02*
X121667D01*
X118333Y28333D02*
Y31667D01*
X108333Y28333D02*
X111667D01*
Y31667D01*
X108333D02*
X111667D01*
X108333Y28333D02*
Y31667D01*
X98333Y28333D02*
X101667D01*
Y31667D01*
X98333D02*
X101667D01*
X98333Y28333D02*
Y31667D01*
X88333Y28333D02*
X91667D01*
Y31667D01*
X88333D02*
X91667D01*
X88333Y28333D02*
Y31667D01*
X78333Y28333D02*
X81667D01*
Y31667D01*
X78333D02*
X81667D01*
X78333Y28333D02*
Y31667D01*
X68333Y28333D02*
X71667D01*
Y31667D01*
X68333D02*
X71667D01*
X68333Y28333D02*
Y31667D01*
X58333Y38333D02*
X61667D01*
Y41667D01*
X58333D02*
X61667D01*
X58333Y38333D02*
Y41667D01*
D71*
X-62000Y311500D02*
X325897D01*
X-62000Y236500D02*
X325897D01*
X-62000Y221500D02*
X325897D01*
Y326500D01*
X-62000D02*
X325897D01*
X-62000Y221500D02*
Y326500D01*
X248017Y221500D02*
Y326500D01*
X197429Y221500D02*
Y326500D01*
X62869Y221500D02*
Y326500D01*
X-6912Y221500D02*
Y326500D01*
D72*
X252517Y323198D02*
Y316000D01*
Y319599D01*
X257315D01*
Y323198D01*
Y316000D01*
X260914D02*
X263313D01*
X264513Y317200D01*
Y319599D01*
X263313Y320798D01*
X260914D01*
X259715Y319599D01*
Y317200D01*
X260914Y316000D01*
X266912D02*
X269311D01*
X268112D01*
Y323198D01*
X266912D01*
X276509Y316000D02*
X274110D01*
X272910Y317200D01*
Y319599D01*
X274110Y320798D01*
X276509D01*
X277709Y319599D01*
Y318399D01*
X272910D01*
X287306Y323198D02*
X292104D01*
X289705D01*
Y316000D01*
X294503Y320798D02*
Y317200D01*
X295703Y316000D01*
X299302D01*
Y314800D01*
X298102Y313601D01*
X296902D01*
X299302Y316000D02*
Y320798D01*
X301701Y313601D02*
Y320798D01*
X305300D01*
X306499Y319599D01*
Y317200D01*
X305300Y316000D01*
X301701D01*
X312497D02*
X310098D01*
X308899Y317200D01*
Y319599D01*
X310098Y320798D01*
X312497D01*
X313697Y319599D01*
Y318399D01*
X308899D01*
X201929Y316000D02*
Y323198D01*
X205528D01*
X206728Y321998D01*
Y319599D01*
X205528Y318399D01*
X201929D01*
X209127Y316000D02*
X211526D01*
X210327D01*
Y323198D01*
X209127D01*
X216325Y320798D02*
X218724D01*
X219923Y319599D01*
Y316000D01*
X216325D01*
X215125Y317200D01*
X216325Y318399D01*
X219923D01*
X223522Y321998D02*
Y320798D01*
X222323D01*
X224722D01*
X223522D01*
Y317200D01*
X224722Y316000D01*
X231920D02*
X229520D01*
X228321Y317200D01*
Y319599D01*
X229520Y320798D01*
X231920D01*
X233119Y319599D01*
Y318399D01*
X228321D01*
X240317Y323198D02*
Y316000D01*
X236718D01*
X235519Y317200D01*
Y319599D01*
X236718Y320798D01*
X240317D01*
X72167Y323198D02*
X67369D01*
Y319599D01*
X69768D01*
X67369D01*
Y316000D01*
X74567D02*
X76966D01*
X75766D01*
Y320798D01*
X74567D01*
X80565Y316000D02*
Y320798D01*
X84163D01*
X85363Y319599D01*
Y316000D01*
X87762D02*
X90162D01*
X88962D01*
Y320798D01*
X87762D01*
X93760Y316000D02*
X97359D01*
X98559Y317200D01*
X97359Y318399D01*
X94960D01*
X93760Y319599D01*
X94960Y320798D01*
X98559D01*
X100958Y323198D02*
Y316000D01*
Y319599D01*
X102158Y320798D01*
X104557D01*
X105756Y319599D01*
Y316000D01*
X111755D02*
X109355D01*
X108156Y317200D01*
Y319599D01*
X109355Y320798D01*
X111755D01*
X112954Y319599D01*
Y318399D01*
X108156D01*
X120152Y323198D02*
Y316000D01*
X116553D01*
X115353Y317200D01*
Y319599D01*
X116553Y320798D01*
X120152D01*
X129749Y323198D02*
Y316000D01*
Y319599D01*
X134547D01*
Y323198D01*
Y316000D01*
X138146D02*
X140545D01*
X141745Y317200D01*
Y319599D01*
X140545Y320798D01*
X138146D01*
X136946Y319599D01*
Y317200D01*
X138146Y316000D01*
X144144D02*
X146543D01*
X145344D01*
Y323198D01*
X144144D01*
X153741Y316000D02*
X151342D01*
X150142Y317200D01*
Y319599D01*
X151342Y320798D01*
X153741D01*
X154941Y319599D01*
Y318399D01*
X150142D01*
X169336Y321998D02*
X168136Y323198D01*
X165737D01*
X164538Y321998D01*
Y320798D01*
X165737Y319599D01*
X168136D01*
X169336Y318399D01*
Y317200D01*
X168136Y316000D01*
X165737D01*
X164538Y317200D01*
X171735Y316000D02*
X174134D01*
X172935D01*
Y320798D01*
X171735D01*
X177733D02*
X182532D01*
X177733Y316000D01*
X182532D01*
X188530D02*
X186130D01*
X184931Y317200D01*
Y319599D01*
X186130Y320798D01*
X188530D01*
X189729Y319599D01*
Y318399D01*
X184931D01*
X-2412Y323198D02*
Y316000D01*
Y319599D01*
X2386D01*
Y323198D01*
Y316000D01*
X4785D02*
X7185D01*
X5985D01*
Y320798D01*
X4785D01*
X11983Y321998D02*
Y320798D01*
X10783D01*
X13183D01*
X11983D01*
Y317200D01*
X13183Y316000D01*
X28778Y321998D02*
X27578Y323198D01*
X25179D01*
X23979Y321998D01*
Y317200D01*
X25179Y316000D01*
X27578D01*
X28778Y317200D01*
X32376Y316000D02*
X34776D01*
X35975Y317200D01*
Y319599D01*
X34776Y320798D01*
X32376D01*
X31177Y319599D01*
Y317200D01*
X32376Y316000D01*
X38374Y320798D02*
Y317200D01*
X39574Y316000D01*
X43173D01*
Y320798D01*
X45572Y316000D02*
Y320798D01*
X49171D01*
X50371Y319599D01*
Y316000D01*
X53969Y321998D02*
Y320798D01*
X52770D01*
X55169D01*
X53969D01*
Y317200D01*
X55169Y316000D01*
X-48202Y321998D02*
X-49401Y323198D01*
X-51800D01*
X-53000Y321998D01*
Y320798D01*
X-51800Y319599D01*
X-49401D01*
X-48202Y318399D01*
Y317200D01*
X-49401Y316000D01*
X-51800D01*
X-53000Y317200D01*
X-45802Y320798D02*
Y317200D01*
X-44603Y316000D01*
X-41004D01*
Y314800D01*
X-42204Y313601D01*
X-43403D01*
X-41004Y316000D02*
Y320798D01*
X-38605Y316000D02*
Y320798D01*
X-37405D01*
X-36205Y319599D01*
Y316000D01*
Y319599D01*
X-35006Y320798D01*
X-33806Y319599D01*
Y316000D01*
X-31407Y323198D02*
Y316000D01*
X-27808D01*
X-26608Y317200D01*
Y318399D01*
Y319599D01*
X-27808Y320798D01*
X-31407D01*
X-23010Y316000D02*
X-20610D01*
X-19411Y317200D01*
Y319599D01*
X-20610Y320798D01*
X-23010D01*
X-24209Y319599D01*
Y317200D01*
X-23010Y316000D01*
X-17012D02*
X-14612D01*
X-15812D01*
Y323198D01*
X-17012D01*
M02*
