%FSLAX25Y25*%
%MOIN*%
G70*
G01*
G75*
G04 Layer_Physical_Order=1*
G04 Layer_Color=255*
%ADD10R,0.05200X0.04250*%
%ADD11R,0.04250X0.05200*%
%ADD12R,0.03150X0.02362*%
%ADD13R,0.03400X0.03100*%
%ADD14R,0.03100X0.03400*%
%ADD15R,0.03200X0.05000*%
%ADD16R,0.04724X0.01181*%
%ADD17R,0.01181X0.04724*%
%ADD18R,0.01772X0.05709*%
%ADD19O,0.01772X0.05709*%
%ADD20R,0.14000X0.08900*%
%ADD21R,0.04700X0.08600*%
%ADD22R,0.04000X0.05500*%
%ADD23R,0.01600X0.03500*%
%ADD24R,0.02992X0.09449*%
%ADD25O,0.02992X0.09449*%
%ADD26C,0.01200*%
%ADD27C,0.02000*%
%ADD28C,0.03000*%
%ADD29C,0.01000*%
%ADD30C,0.03500*%
%ADD31R,0.06000X0.06000*%
%ADD32C,0.06000*%
%ADD33C,0.10000*%
%ADD34R,0.05906X0.05906*%
%ADD35C,0.05906*%
%ADD36C,0.02400*%
%ADD37C,0.03000*%
D10*
X129500Y60625D02*
D03*
Y54375D02*
D03*
X129500Y71375D02*
D03*
Y77625D02*
D03*
X182500Y158375D02*
D03*
Y164625D02*
D03*
X228000Y158875D02*
D03*
Y165125D02*
D03*
X92000Y94625D02*
D03*
Y88375D02*
D03*
X73500Y129000D02*
D03*
Y122750D02*
D03*
X64500Y122750D02*
D03*
Y129000D02*
D03*
X139000Y121250D02*
D03*
Y115000D02*
D03*
X148500Y121250D02*
D03*
Y115000D02*
D03*
X176000Y60625D02*
D03*
Y54375D02*
D03*
X176000Y71375D02*
D03*
Y77625D02*
D03*
X59000Y69125D02*
D03*
Y62875D02*
D03*
X77000Y69125D02*
D03*
Y62875D02*
D03*
D11*
X88750Y177500D02*
D03*
X95000D02*
D03*
X88750Y169000D02*
D03*
X95000D02*
D03*
X125125Y102500D02*
D03*
X118875D02*
D03*
D12*
X236000Y159146D02*
D03*
Y164854D02*
D03*
X121000Y185146D02*
D03*
Y190854D02*
D03*
X112500Y185146D02*
D03*
Y190854D02*
D03*
D13*
X103500Y177550D02*
D03*
Y171450D02*
D03*
X63500Y105550D02*
D03*
Y99450D02*
D03*
X47500Y105550D02*
D03*
Y99450D02*
D03*
X31500Y105550D02*
D03*
Y99450D02*
D03*
X15500Y105550D02*
D03*
Y99450D02*
D03*
X55500D02*
D03*
Y105550D02*
D03*
X39500Y99450D02*
D03*
Y105550D02*
D03*
X23500Y99450D02*
D03*
Y105550D02*
D03*
X7500Y99450D02*
D03*
Y105550D02*
D03*
X121000Y177550D02*
D03*
Y171450D02*
D03*
X112500Y177550D02*
D03*
Y171450D02*
D03*
D14*
X80050Y85500D02*
D03*
X73950D02*
D03*
X228450Y149500D02*
D03*
X234550D02*
D03*
X87450Y191500D02*
D03*
X93550D02*
D03*
X27450Y185000D02*
D03*
X33550D02*
D03*
X47950D02*
D03*
X54050D02*
D03*
X51050Y159500D02*
D03*
X44950D02*
D03*
X30450D02*
D03*
X36550D02*
D03*
D15*
X64400Y167500D02*
D03*
Y188500D02*
D03*
X79000Y167500D02*
D03*
Y188500D02*
D03*
D16*
X85362Y150764D02*
D03*
Y148795D02*
D03*
Y146827D02*
D03*
Y144858D02*
D03*
Y142890D02*
D03*
Y140921D02*
D03*
Y138953D02*
D03*
Y136984D02*
D03*
Y135016D02*
D03*
Y133047D02*
D03*
Y131079D02*
D03*
Y129110D02*
D03*
Y127142D02*
D03*
Y125173D02*
D03*
Y123205D02*
D03*
Y121236D02*
D03*
X130638D02*
D03*
Y123205D02*
D03*
Y125173D02*
D03*
Y127142D02*
D03*
Y129110D02*
D03*
Y131079D02*
D03*
Y133047D02*
D03*
Y135016D02*
D03*
Y136984D02*
D03*
Y138953D02*
D03*
Y140921D02*
D03*
Y142890D02*
D03*
Y144858D02*
D03*
Y146827D02*
D03*
Y148795D02*
D03*
Y150764D02*
D03*
D17*
X93236Y113362D02*
D03*
X95205D02*
D03*
X97173D02*
D03*
X99142D02*
D03*
X101110D02*
D03*
X103079D02*
D03*
X105047D02*
D03*
X107016D02*
D03*
X108984D02*
D03*
X110953D02*
D03*
X112921D02*
D03*
X114890D02*
D03*
X116858D02*
D03*
X118827D02*
D03*
X120795D02*
D03*
X122764D02*
D03*
Y158638D02*
D03*
X120795D02*
D03*
X118827D02*
D03*
X116858D02*
D03*
X114890D02*
D03*
X112921D02*
D03*
X110953D02*
D03*
X108984D02*
D03*
X107016D02*
D03*
X105047D02*
D03*
X103079D02*
D03*
X101110D02*
D03*
X99142D02*
D03*
X97173D02*
D03*
X95205D02*
D03*
X93236D02*
D03*
D18*
X122500Y77500D02*
D03*
X169000D02*
D03*
D19*
X119941D02*
D03*
X117382D02*
D03*
X114823D02*
D03*
X112264D02*
D03*
X109705D02*
D03*
X107146D02*
D03*
X104587D02*
D03*
X102027D02*
D03*
X99468D02*
D03*
X96909D02*
D03*
X94350D02*
D03*
X122500Y54272D02*
D03*
X119941D02*
D03*
X117382D02*
D03*
X114823D02*
D03*
X112264D02*
D03*
X109705D02*
D03*
X107146D02*
D03*
X104587D02*
D03*
X102027D02*
D03*
X99468D02*
D03*
X96909D02*
D03*
X94350D02*
D03*
X166441Y77500D02*
D03*
X163882D02*
D03*
X161323D02*
D03*
X158764D02*
D03*
X156205D02*
D03*
X153646D02*
D03*
X151087D02*
D03*
X148527D02*
D03*
X145968D02*
D03*
X143409D02*
D03*
X140850D02*
D03*
X169000Y54272D02*
D03*
X166441D02*
D03*
X163882D02*
D03*
X161323D02*
D03*
X158764D02*
D03*
X156205D02*
D03*
X153646D02*
D03*
X151087D02*
D03*
X148527D02*
D03*
X145968D02*
D03*
X143409D02*
D03*
X140850D02*
D03*
D20*
X205000Y183000D02*
D03*
D21*
X196000Y158600D02*
D03*
X205000D02*
D03*
X214000D02*
D03*
D22*
X73000Y103150D02*
D03*
X81000D02*
D03*
X77000Y94500D02*
D03*
X47000Y176150D02*
D03*
X55000D02*
D03*
X51000Y167500D02*
D03*
X26500Y176150D02*
D03*
X34500D02*
D03*
X30500Y167500D02*
D03*
D23*
X47500Y62300D02*
D03*
X50100D02*
D03*
X52700D02*
D03*
Y71000D02*
D03*
X47500D02*
D03*
X65500Y62300D02*
D03*
X68100D02*
D03*
X70700D02*
D03*
Y71000D02*
D03*
X65500D02*
D03*
X89000Y70700D02*
D03*
X86400D02*
D03*
X83800D02*
D03*
Y62000D02*
D03*
X89000D02*
D03*
D24*
X163500Y186000D02*
D03*
D25*
X158500D02*
D03*
X153500D02*
D03*
X148500D02*
D03*
X143500D02*
D03*
X163500Y170646D02*
D03*
X158500D02*
D03*
X153500D02*
D03*
X148500D02*
D03*
X143500D02*
D03*
D26*
Y195000D02*
X153500D01*
X143500Y186000D02*
Y195000D01*
X153500D02*
X158500D01*
Y186000D02*
Y195000D01*
X153500Y186000D02*
Y195000D01*
X103079Y109036D02*
Y113362D01*
X102647Y108604D02*
X103079Y109036D01*
X101110Y113362D02*
Y118890D01*
X101000Y119000D02*
X101110Y118890D01*
X101000Y119000D02*
X101542D01*
X86400Y73900D02*
X89000Y76500D01*
X86400Y70700D02*
Y73900D01*
X99142Y113362D02*
Y124642D01*
X105047Y106453D02*
Y113362D01*
X112500Y140954D02*
X118827Y147281D01*
Y158638D01*
X116858Y147858D02*
Y158638D01*
X110000Y141000D02*
X116858Y147858D01*
X110000Y120000D02*
Y141000D01*
X98571Y106429D02*
X101429D01*
X95205Y109795D02*
X98571Y106429D01*
X95205Y109795D02*
Y113362D01*
X64500Y129000D02*
X73500D01*
X96000Y101000D02*
X99468Y97532D01*
Y77500D02*
Y97532D01*
X97809Y102810D02*
X102027Y98592D01*
Y77500D02*
Y98592D01*
X99619Y104619D02*
X104587Y99652D01*
Y77500D02*
Y99652D01*
X101429Y106429D02*
X107146Y100712D01*
X130638Y136984D02*
X139984D01*
X140500Y137500D01*
X125000Y22500D02*
X127500Y20000D01*
X115000Y22500D02*
X120000Y17500D01*
X182468Y97532D02*
Y133997D01*
Y97532D02*
X198000Y82000D01*
X173732Y142732D02*
X182468Y133997D01*
X184268Y99268D02*
Y135732D01*
Y99268D02*
X199800Y83736D01*
Y25765D02*
Y83736D01*
X191535Y17500D02*
X199800Y25765D01*
X198000Y27500D02*
Y82000D01*
X120000Y17500D02*
X191535D01*
X190500Y20000D02*
X198000Y27500D01*
X127500Y20000D02*
X190500D01*
X167500Y140945D02*
X175810Y132635D01*
X163141Y148795D02*
X178279Y133657D01*
X130638Y148795D02*
X163141D01*
X160096Y144858D02*
X173342Y131612D01*
X130638Y144858D02*
X160096D01*
X158573Y142890D02*
X170874Y130590D01*
X130638Y142890D02*
X158573D01*
X162957Y135016D02*
X168405Y129567D01*
X130638Y135016D02*
X162957D01*
X161434Y133047D02*
X165937Y128545D01*
X130638Y133047D02*
X161434D01*
X130638Y131079D02*
X159912D01*
X130638Y129110D02*
X158390D01*
X178279Y97279D02*
Y133657D01*
X163882Y82882D02*
X178279Y97279D01*
X175810Y98301D02*
Y132635D01*
X161323Y83814D02*
X175810Y98301D01*
X173342Y99324D02*
Y131612D01*
X158764Y84746D02*
X173342Y99324D01*
X170874Y100346D02*
Y130590D01*
X156205Y85677D02*
X170874Y100346D01*
X168405Y101369D02*
Y129567D01*
X153646Y86609D02*
X168405Y101369D01*
X165937Y102391D02*
Y128545D01*
X151087Y87541D02*
X165937Y102391D01*
X145968Y77500D02*
Y89404D01*
X148527Y77500D02*
Y88472D01*
X151087Y77500D02*
Y87541D01*
X153646Y77500D02*
Y86609D01*
X156205Y77500D02*
Y85677D01*
X158764Y77500D02*
Y84746D01*
X161323Y77500D02*
Y83814D01*
X163882Y77500D02*
Y82882D01*
X34500Y176150D02*
Y180500D01*
X33550Y181450D02*
X34500Y180500D01*
X33550Y181450D02*
Y185000D01*
X54050Y181450D02*
Y185000D01*
Y181450D02*
X55000Y180500D01*
Y176150D02*
Y180500D01*
X51050Y159500D02*
Y167450D01*
Y155550D02*
Y159500D01*
X49000Y153500D02*
X51050Y155550D01*
X38500Y153500D02*
X49000D01*
X30450Y159500D02*
Y167450D01*
Y154150D02*
Y159500D01*
Y154150D02*
X31100Y153500D01*
X129500Y66000D02*
X137000D01*
X140850Y62150D01*
Y54272D02*
Y62150D01*
X120625Y60625D02*
X129500D01*
X117382Y57382D02*
X120625Y60625D01*
X117382Y54272D02*
Y57382D01*
X163882Y54272D02*
Y58382D01*
X166125Y60625D01*
X176000D01*
X129500Y71375D02*
X134725D01*
X140850Y77500D01*
X143409D01*
X63500Y89500D02*
Y99450D01*
X61000Y87000D02*
X63500Y89500D01*
X32000Y87000D02*
X61000D01*
X30000Y85000D02*
X32000Y87000D01*
X30000Y81000D02*
Y85000D01*
X47500Y93000D02*
Y99450D01*
X44500Y90000D02*
X47500Y93000D01*
X29500Y90000D02*
X44500D01*
X27000Y87500D02*
X29500Y90000D01*
X26800Y87500D02*
X27000D01*
X26800Y81000D02*
Y87500D01*
X15500Y92400D02*
X20400Y87500D01*
X15500Y92400D02*
Y99450D01*
X20400Y81000D02*
Y87500D01*
X31500Y95400D02*
Y99450D01*
X23600Y87500D02*
X31500Y95400D01*
X23600Y81000D02*
Y87500D01*
X83800Y75300D02*
X92000Y83500D01*
X83800Y70700D02*
Y75300D01*
X92000Y83500D02*
Y88375D01*
Y83500D02*
X94500Y81000D01*
Y77650D02*
Y81000D01*
X94350Y77500D02*
X94500Y77650D01*
X94350Y77500D02*
X96909D01*
X93236Y113362D02*
Y119764D01*
X85000Y94625D02*
X92000D01*
X81125D02*
X85000D01*
X81000Y86450D02*
Y103150D01*
X80050Y85500D02*
X81000Y86450D01*
X89000Y62000D02*
X92000D01*
X89000D02*
Y65500D01*
X88000Y66500D02*
X89000Y65500D01*
X80000Y66500D02*
X88000D01*
X77375Y69125D02*
X80000Y66500D01*
X77000Y69125D02*
X77375D01*
X70700Y62300D02*
X76425D01*
X52700D02*
X58425D01*
X169000Y54272D02*
X175897D01*
X85362Y115757D02*
X96500Y104619D01*
X85362Y115757D02*
Y121236D01*
X96500Y104619D02*
X99619D01*
X81705Y123205D02*
X85362D01*
X81000Y116809D02*
X95000Y102810D01*
X97809D01*
X81000Y122500D02*
X81705Y123205D01*
X81000Y116809D02*
Y122500D01*
X79000Y116000D02*
Y123046D01*
Y116000D02*
X94000Y101000D01*
X96000D01*
X73610Y129110D02*
X85362D01*
X74375Y122750D02*
X78767Y127142D01*
X64500Y122750D02*
X74375D01*
X59000Y129000D02*
X64500D01*
X64250Y123000D02*
X64500Y122750D01*
X59000Y123000D02*
X64250D01*
X39500Y105550D02*
X47500D01*
Y130500D01*
X54000Y137000D01*
X55500Y105550D02*
Y130500D01*
X60000Y135000D01*
X55500Y105550D02*
X63500D01*
X23500D02*
X31500D01*
Y130500D01*
X40000Y139000D01*
X7500Y105550D02*
X15500D01*
Y130500D01*
X26000Y141000D01*
X81516Y136984D02*
X85362D01*
X77500Y141000D02*
X81516Y136984D01*
X26000Y141000D02*
X77500D01*
X80939Y135016D02*
X85362D01*
X76954Y139000D02*
X80939Y135016D01*
X40000Y139000D02*
X76954D01*
X80362Y133047D02*
X85362D01*
X76409Y137000D02*
X80362Y133047D01*
X54000Y137000D02*
X76409D01*
X79785Y131079D02*
X85362D01*
X75863Y135000D02*
X79785Y131079D01*
X60000Y135000D02*
X75863D01*
X47500Y82500D02*
X52700Y77300D01*
Y71000D02*
Y77300D01*
X70700Y71000D02*
Y76300D01*
X68500Y78500D02*
X70700Y76300D01*
X78500Y143500D02*
X81000D01*
X81610Y142890D01*
X85362D01*
X76027Y146827D02*
X85362D01*
X76000Y146800D02*
X76027Y146827D01*
X41000Y159500D02*
Y167500D01*
X36550Y159500D02*
X41000D01*
X44950D01*
X99142Y155858D02*
Y158638D01*
X98500Y155217D02*
X99142Y155858D01*
X98500Y153000D02*
Y155217D01*
X95205Y158638D02*
Y168795D01*
X93236Y158638D02*
Y162264D01*
X91500Y164000D02*
X93236Y162264D01*
X90000Y164000D02*
X91500D01*
X88750Y165250D02*
X90000Y164000D01*
X88750Y165250D02*
Y169000D01*
X95500Y150000D02*
X100000D01*
X94923Y148032D02*
X100577D01*
X26500Y176150D02*
Y180500D01*
X27450Y181450D01*
Y185000D01*
X47000Y176150D02*
Y180500D01*
X48000Y181500D01*
X26500Y176150D02*
X30618Y172032D01*
X48000Y181500D02*
Y188500D01*
X49500Y190000D01*
X55500D01*
X95050Y177550D02*
X103500D01*
Y166500D02*
Y171450D01*
X101110Y164110D02*
X103500Y166500D01*
X101110Y158638D02*
Y164110D01*
X34500Y176150D02*
X41150D01*
X55000D02*
X61350D01*
X12000Y153000D02*
X20500Y144500D01*
X61500D01*
X70000Y153000D01*
Y153500D01*
X12000Y163000D02*
X28000Y147000D01*
X59000D01*
X69500Y157500D01*
X70000D01*
X121000Y137500D02*
X122453Y138953D01*
X130638D01*
X121000Y142500D02*
X122579Y140921D01*
X130638D01*
X159912Y131079D02*
X163468Y127523D01*
X148527Y88472D02*
X163468Y103413D01*
Y127523D01*
X158390Y129110D02*
X161000Y126500D01*
X145968Y89404D02*
X161000Y104436D01*
Y126500D01*
X123500Y153000D02*
X167000D01*
X184268Y135732D01*
X120795Y155705D02*
X123500Y153000D01*
X120795Y155705D02*
Y158638D01*
X122500Y150000D02*
X125673Y146827D01*
X130638D01*
X228271Y164854D02*
X236000D01*
X79000Y123046D02*
X81128Y125173D01*
X85362D01*
X78767Y127142D02*
X90858D01*
X97173Y120827D01*
Y113362D02*
Y120827D01*
X73000Y150500D02*
X73264Y150764D01*
X85362D01*
X112500Y123000D02*
Y140954D01*
X107146Y77500D02*
Y100712D01*
X109705Y77500D02*
Y101795D01*
X105047Y106453D02*
X109705Y101795D01*
X117382Y77500D02*
Y82882D01*
X119500Y85000D01*
X114823Y77500D02*
Y89177D01*
X112264Y77500D02*
Y82264D01*
X100000Y150000D02*
X103079Y153079D01*
Y158638D01*
X100577Y148032D02*
X105047Y152502D01*
Y158638D01*
X110953Y150547D02*
X112000Y149500D01*
X110953Y150547D02*
Y158638D01*
X112500Y177550D02*
Y185146D01*
X121000Y177550D02*
Y185146D01*
Y190854D02*
Y191000D01*
X117000Y195000D02*
X121000Y191000D01*
X112500Y190854D02*
X112854D01*
X117000Y195000D01*
X112921Y158638D02*
Y171029D01*
X112500Y171450D02*
X112921Y171029D01*
X114890Y158638D02*
Y161890D01*
X121000Y168000D01*
Y171450D01*
X88923Y154032D02*
X94923Y148032D01*
X77968Y154032D02*
X88923D01*
X79500Y156500D02*
X89000D01*
X95500Y150000D01*
X73000Y163000D02*
X79500Y156500D01*
X73000Y163000D02*
Y172500D01*
X55500Y190000D02*
X73000Y172500D01*
X70500Y161500D02*
X77968Y154032D01*
X70500Y161500D02*
Y168500D01*
X66968Y172032D02*
X70500Y168500D01*
X30618Y172032D02*
X66968D01*
X79000Y162000D02*
Y167500D01*
X88500Y186450D02*
X93550Y191500D01*
X88500Y185000D02*
Y186450D01*
X85500Y191500D02*
X87450D01*
X82500Y188500D02*
X85500Y191500D01*
X79000Y188500D02*
X82500D01*
Y183000D02*
Y188500D01*
X130638Y121236D02*
X138764D01*
X104100Y138100D02*
X107500Y141500D01*
Y150500D01*
X85362Y142890D02*
X89610D01*
X92000Y140500D01*
X123000Y125500D02*
X125295Y123205D01*
X130638D01*
X85362Y146827D02*
X90173D01*
X92500Y144500D01*
X119000Y128500D02*
X123500D01*
X126827Y125173D01*
X130638D01*
X85362Y138953D02*
X89047D01*
X89900Y138100D01*
X104100D01*
X163500Y162500D02*
Y170646D01*
X159500Y158500D02*
X163500Y162500D01*
X158500D02*
Y170646D01*
X154638Y158638D02*
X158500Y162500D01*
X122764Y158638D02*
X154638D01*
X153500Y163500D02*
Y170646D01*
X152000Y162000D02*
X153500Y163500D01*
X134854Y170646D02*
X143500D01*
D27*
X163500Y186000D02*
Y194500D01*
X139000Y121250D02*
X148500D01*
X73000Y103150D02*
Y110000D01*
X122500Y54272D02*
X134272D01*
X7500Y94000D02*
Y99450D01*
X23500Y94000D02*
Y99450D01*
X39500Y94000D02*
Y99450D01*
X55500Y94000D02*
Y99450D01*
X176000Y60625D02*
Y66000D01*
X186000Y57500D02*
Y62500D01*
X182875Y54375D02*
X186000Y57500D01*
X176000Y54375D02*
X182875D01*
X134272Y54272D02*
X136500Y56500D01*
Y62500D01*
X129500Y60625D02*
Y66000D01*
Y71375D01*
X77000Y57000D02*
Y62875D01*
X59000Y57000D02*
Y62875D01*
X205000Y165125D02*
X228000D01*
X183000D02*
X205000D01*
X176000Y66000D02*
Y71375D01*
X77000Y75000D02*
X77000Y75000D01*
Y69125D02*
Y75000D01*
X234550Y149500D02*
Y154050D01*
X236000Y155500D01*
Y159146D01*
X138875Y121125D02*
X139000Y121250D01*
X148500D02*
X154250D01*
D28*
X139000Y115000D02*
X148500D01*
X205000Y166000D02*
Y175500D01*
X205000Y183000D01*
X205000Y166000D02*
X205000Y165125D01*
Y158600D02*
Y165125D01*
X228450Y149500D02*
Y158425D01*
X228000Y158875D02*
X228450Y158425D01*
X138625Y114625D02*
X139000Y115000D01*
X148500D02*
X155000D01*
D29*
X114823Y60446D02*
X115000Y60623D01*
X114823Y54272D02*
Y60446D01*
X65500Y82500D02*
X68500Y85500D01*
X73950D01*
X65500Y68500D02*
Y71000D01*
X63500Y66500D02*
X65500Y68500D01*
X62000Y66500D02*
X63500D01*
X59375Y69125D02*
X62000Y66500D01*
X59000Y69125D02*
X59375D01*
X56375Y66500D02*
X59000Y69125D01*
X49500Y66500D02*
X56375D01*
X47500Y68500D02*
X49500Y66500D01*
X47500Y68500D02*
Y71000D01*
X76425Y62300D02*
X77000Y62875D01*
X58425Y62300D02*
X59000Y62875D01*
X50100Y58100D02*
X54700Y53500D01*
X60000Y30000D02*
X65000Y35000D01*
Y51000D01*
X62500Y53500D02*
X65000Y51000D01*
X54700Y53500D02*
X62500D01*
X50100Y58100D02*
Y62300D01*
X70000Y30000D02*
X75000Y35000D01*
Y46500D01*
X68100Y53400D02*
X75000Y46500D01*
X68100Y53400D02*
Y62300D01*
X80000Y40000D02*
Y46500D01*
X83800Y50300D01*
Y62000D01*
X88750Y169000D02*
Y177500D01*
X94875Y185000D02*
X95000Y184875D01*
X120795Y109295D02*
Y113362D01*
X122764Y109236D02*
Y113362D01*
Y109236D02*
X125125Y106875D01*
Y102500D02*
Y106875D01*
X96066Y46000D02*
X96736Y46670D01*
X86500Y46000D02*
X96066D01*
X85000Y44500D02*
X86500Y46000D01*
X85000Y35000D02*
Y44500D01*
X80000Y30000D02*
X85000Y35000D01*
X96894Y44000D02*
X99468Y46574D01*
X96500Y44000D02*
X96894D01*
X95000Y42500D02*
X96500Y44000D01*
X95000Y35000D02*
Y42500D01*
X90000Y30000D02*
X95000Y35000D01*
X102027Y46472D02*
X105000Y43500D01*
Y35000D02*
Y43500D01*
X100000Y30000D02*
X105000Y35000D01*
X104760Y46670D02*
X105930Y45500D01*
X113000D01*
X115000Y43500D01*
Y35000D02*
Y43500D01*
X110000Y30000D02*
X115000Y35000D01*
X185000D02*
X190000Y30000D01*
X185000Y35000D02*
Y43500D01*
X178583Y49917D02*
X185000Y43500D01*
X162894Y49917D02*
X178583D01*
X161323Y51488D02*
X162894Y49917D01*
X161323Y51488D02*
Y54272D01*
X175000Y35000D02*
X180000Y30000D01*
X175000Y35000D02*
Y43500D01*
X170583Y47917D02*
X175000Y43500D01*
X162065Y47917D02*
X170583D01*
X158764Y51219D02*
X162065Y47917D01*
X156378Y50776D02*
X161237Y45917D01*
X156378Y50776D02*
Y54098D01*
X156205Y54272D02*
X156378Y54098D01*
X155000Y35000D02*
X160000Y30000D01*
X153819Y50507D02*
X155000Y49326D01*
X153819Y50507D02*
Y54098D01*
X165000Y35000D02*
X170000Y30000D01*
X161237Y45917D02*
X162583D01*
X165000Y43500D01*
Y35000D02*
Y43500D01*
X155000Y35000D02*
Y49326D01*
X151087Y47587D02*
Y54272D01*
X148387Y54131D02*
X148527Y54272D01*
X148387Y46887D02*
Y54131D01*
X145000Y43500D02*
X148387Y46887D01*
X145000Y35000D02*
Y43500D01*
X140000Y30000D02*
X145000Y35000D01*
X135000D02*
Y43303D01*
X130000Y30000D02*
X135000Y35000D01*
X120000Y30000D02*
X125000Y35000D01*
Y43500D01*
X131417Y49917D01*
X141839D01*
X143236Y51315D01*
Y54098D01*
X143409Y54272D01*
X145795Y54098D02*
X145968Y54272D01*
X145795Y50170D02*
Y54098D01*
X143543Y47917D02*
X145795Y50170D01*
X139614Y47917D02*
X143543D01*
X135000Y43303D02*
X139614Y47917D01*
X107146Y48855D02*
Y54272D01*
Y48855D02*
X107500Y48500D01*
X109705Y54272D02*
Y59795D01*
X112264Y54272D02*
X112405Y54413D01*
Y63595D01*
X112264Y63736D02*
X112405Y63595D01*
X96909Y46843D02*
Y54272D01*
X99468Y46574D02*
Y54272D01*
X102027Y46472D02*
Y54272D01*
X104587Y46843D02*
Y54272D01*
X90772D02*
X94350D01*
X122500Y77500D02*
X129375D01*
X169000D02*
X175875D01*
X95000Y169000D02*
Y184875D01*
X88500Y177750D02*
X88750Y177500D01*
X88500Y177750D02*
Y185000D01*
X125000Y102375D02*
X125125Y102500D01*
X125000Y96500D02*
Y102375D01*
X118500Y107000D02*
X120795Y109295D01*
X119941Y77500D02*
X122500D01*
X129500Y77625D02*
Y82500D01*
X176000Y77625D02*
Y82500D01*
X166441Y72559D02*
Y77500D01*
X162882Y69000D02*
X166441Y72559D01*
X138000Y69000D02*
X162882D01*
X118827Y122827D02*
X119000Y123000D01*
X118827Y113362D02*
Y122827D01*
X118500Y96500D02*
Y107000D01*
X59000Y69125D02*
Y82500D01*
X59000Y82500D02*
X65500D01*
X230499Y123929D02*
X224500Y125929D01*
X230499Y123929D02*
X224500Y121930D01*
X229642Y123929D02*
X224500Y122215D01*
X226214Y125357D02*
Y122786D01*
X224500Y126500D02*
Y124786D01*
Y123072D02*
Y121358D01*
X230499Y119730D02*
X224500D01*
X230499Y119444D02*
X224500D01*
X230499Y120587D02*
Y117159D01*
X230213Y116302D01*
X229927Y116016D01*
X229356Y115731D01*
X228785D01*
X228214Y116016D01*
X227928Y116302D01*
X227642Y117159D01*
Y119444D01*
X230499Y117159D02*
X230213Y116588D01*
X229927Y116302D01*
X229356Y116016D01*
X228785D01*
X228214Y116302D01*
X227928Y116588D01*
X227642Y117159D01*
X224500Y120587D02*
Y118587D01*
X227642Y118016D02*
X227357Y117445D01*
X227071Y117159D01*
X225071Y116302D01*
X224786Y116016D01*
Y115731D01*
X225071Y115445D01*
X227357Y117445D02*
X226785Y117159D01*
X224786Y116588D01*
X224500Y116302D01*
Y115731D01*
X225071Y115445D01*
X225357D01*
X230499Y113817D02*
X224500D01*
X230499Y113531D02*
X225357Y111817D01*
X230499Y113817D02*
X224500Y111817D01*
X230499Y109818D02*
X224500Y111817D01*
X230499Y109818D02*
X224500D01*
X230499Y109532D02*
X224500D01*
X230499Y114674D02*
Y113531D01*
Y109818D02*
Y108675D01*
X224500Y114674D02*
Y112960D01*
Y110675D02*
Y108675D01*
X230499Y101734D02*
X224500D01*
X230499Y101448D02*
X224500D01*
X230499Y102591D02*
Y99163D01*
X230213Y98306D01*
X229927Y98020D01*
X229356Y97735D01*
X228499D01*
X227928Y98020D01*
X227642Y98306D01*
X227357Y99163D01*
Y101448D01*
X230499Y99163D02*
X230213Y98592D01*
X229927Y98306D01*
X229356Y98020D01*
X228499D01*
X227928Y98306D01*
X227642Y98592D01*
X227357Y99163D01*
X224500Y102591D02*
Y100591D01*
X230499Y96078D02*
X224500D01*
X230499Y95792D02*
X224500D01*
X230499Y96935D02*
Y94935D01*
X224500Y96935D02*
Y92650D01*
X226214D01*
X224500Y92936D01*
X230499Y90936D02*
X226214D01*
X225357Y90650D01*
X224786Y90079D01*
X224500Y89222D01*
Y88651D01*
X224786Y87794D01*
X225357Y87223D01*
X226214Y86937D01*
X230499D01*
Y90650D02*
X226214D01*
X225357Y90365D01*
X224786Y89794D01*
X224500Y89222D01*
X230499Y91793D02*
Y89794D01*
Y87794D02*
Y86080D01*
X229642Y81367D02*
X228785Y81081D01*
X230499D01*
X229642Y81367D01*
X230213Y81938D01*
X230499Y82795D01*
Y83366D01*
X230213Y84223D01*
X229642Y84795D01*
X229070Y85080D01*
X228214Y85366D01*
X226785D01*
X225928Y85080D01*
X225357Y84795D01*
X224786Y84223D01*
X224500Y83366D01*
Y82795D01*
X224786Y81938D01*
X225357Y81367D01*
X230499Y83366D02*
X230213Y83938D01*
X229642Y84509D01*
X229070Y84795D01*
X228214Y85080D01*
X226785D01*
X225928Y84795D01*
X225357Y84509D01*
X224786Y83938D01*
X224500Y83366D01*
X226785Y81367D02*
X224500D01*
X226785Y81081D02*
X224500D01*
X226785Y82224D02*
Y80224D01*
X230499Y76882D02*
X224500Y78882D01*
X230499Y76882D02*
X224500Y74883D01*
X229642Y76882D02*
X224500Y75168D01*
X226214Y78310D02*
Y75739D01*
X224500Y79453D02*
Y77739D01*
Y76025D02*
Y74311D01*
X230499Y72683D02*
X224500D01*
X230499Y72397D02*
X224500D01*
X230499Y73540D02*
Y71540D01*
X224500Y73540D02*
Y69255D01*
X226214D01*
X224500Y69541D01*
X230499Y67541D02*
X224500D01*
X230499Y67256D02*
X224500D01*
X230499Y68398D02*
Y66399D01*
X224500Y68398D02*
Y64113D01*
X226214D01*
X224500Y64399D01*
X220499Y125643D02*
X214500D01*
X220499Y125357D02*
X215071Y121930D01*
X219927Y125357D02*
X214500Y121930D01*
X220499D02*
X214500D01*
X220499Y126500D02*
Y125357D01*
Y122786D02*
Y121073D01*
X214500Y126500D02*
Y124786D01*
X218499Y118616D02*
X218214Y119473D01*
X217642Y120044D01*
X216785Y120330D01*
X216214D01*
X215357Y120044D01*
X214786Y119473D01*
X214500Y118616D01*
Y118045D01*
X214786Y117188D01*
X215357Y116616D01*
X216214Y116331D01*
X216785D01*
X217642Y116616D01*
X218214Y117188D01*
X218499Y118045D01*
Y118616D01*
X218214Y119187D01*
X217642Y119759D01*
X216785Y120044D01*
X216214D01*
X215357Y119759D01*
X214786Y119187D01*
X214500Y118616D01*
Y118045D02*
X214786Y117473D01*
X215357Y116902D01*
X216214Y116616D01*
X216785D01*
X217642Y116902D01*
X218214Y117473D01*
X218499Y118045D01*
X217928Y114874D02*
X217642D01*
Y115160D01*
X217928D01*
X218214Y114874D01*
X218499Y114303D01*
Y113160D01*
X218214Y112589D01*
X217928Y112303D01*
X217356Y112017D01*
X215357D01*
X214786Y111732D01*
X214500Y111446D01*
X217928Y112303D02*
X215357D01*
X214786Y112017D01*
X214500Y111446D01*
Y111160D01*
X217356Y112303D02*
X217071Y112589D01*
X216785Y114303D01*
X216500Y115160D01*
X215928Y115445D01*
X215357D01*
X214786Y115160D01*
X214500Y114303D01*
Y113446D01*
X214786Y112874D01*
X215357Y112303D01*
X216785Y114303D02*
X216500Y114874D01*
X215928Y115160D01*
X215357D01*
X214786Y114874D01*
X214500Y114303D01*
X220499Y109447D02*
X214500D01*
X220499Y109161D02*
X214500D01*
X217642D02*
X218214Y108589D01*
X218499Y107733D01*
Y107161D01*
X218214Y106304D01*
X217642Y106019D01*
X214500D01*
X218499Y107161D02*
X218214Y106590D01*
X217642Y106304D01*
X214500D01*
X220499Y110303D02*
Y109161D01*
X214500Y110303D02*
Y108304D01*
Y107161D02*
Y105162D01*
X220499Y98135D02*
X214500D01*
X220499Y97849D02*
X214500D01*
X220499Y94421D02*
X214500D01*
X220499Y94135D02*
X214500D01*
X220499Y98992D02*
Y96992D01*
Y95278D02*
Y93278D01*
X217642Y97849D02*
Y94421D01*
X214500Y98992D02*
Y96992D01*
Y95278D02*
Y93278D01*
X218499Y91707D02*
X215357D01*
X214786Y91422D01*
X214500Y90565D01*
Y89994D01*
X214786Y89137D01*
X215357Y88565D01*
X218499Y91422D02*
X215357D01*
X214786Y91136D01*
X214500Y90565D01*
X218499Y88565D02*
X214500D01*
X218499Y88280D02*
X214500D01*
X218499Y92564D02*
Y91422D01*
Y89422D02*
Y88280D01*
X214500Y88565D02*
Y87423D01*
X216785Y86366D02*
Y82938D01*
X217356D01*
X217928Y83224D01*
X218214Y83509D01*
X218499Y84080D01*
Y84938D01*
X218214Y85794D01*
X217642Y86366D01*
X216785Y86651D01*
X216214D01*
X215357Y86366D01*
X214786Y85794D01*
X214500Y84938D01*
Y84366D01*
X214786Y83509D01*
X215357Y82938D01*
X216785Y83224D02*
X217642D01*
X218214Y83509D01*
X218499Y84938D02*
X218214Y85509D01*
X217642Y86080D01*
X216785Y86366D01*
X216214D01*
X215357Y86080D01*
X214786Y85509D01*
X214500Y84938D01*
Y80310D02*
X214786Y80595D01*
X215643Y80881D01*
X220499D01*
Y81167D01*
X215643D01*
X214786Y80881D01*
X214500Y80310D01*
Y79739D01*
X214786Y79167D01*
X215357Y78882D01*
X218499Y82024D02*
Y79739D01*
X214500Y76196D02*
X214786Y76482D01*
X215643Y76768D01*
X220499D01*
Y77053D01*
X215643D01*
X214786Y76768D01*
X214500Y76196D01*
Y75625D01*
X214786Y75054D01*
X215357Y74768D01*
X218499Y77910D02*
Y75625D01*
X216785Y73511D02*
Y70083D01*
X217356D01*
X217928Y70369D01*
X218214Y70655D01*
X218499Y71226D01*
Y72083D01*
X218214Y72940D01*
X217642Y73511D01*
X216785Y73797D01*
X216214D01*
X215357Y73511D01*
X214786Y72940D01*
X214500Y72083D01*
Y71512D01*
X214786Y70655D01*
X215357Y70083D01*
X216785Y70369D02*
X217642D01*
X218214Y70655D01*
X218499Y72083D02*
X218214Y72654D01*
X217642Y73226D01*
X216785Y73511D01*
X216214D01*
X215357Y73226D01*
X214786Y72654D01*
X214500Y72083D01*
X218499Y68313D02*
X214500D01*
X218499Y68027D02*
X214500D01*
X216785D02*
X217642Y67741D01*
X218214Y67170D01*
X218499Y66599D01*
Y65742D01*
X218214Y65456D01*
X217928D01*
X217642Y65742D01*
X217928Y66027D01*
X218214Y65742D01*
X218499Y69169D02*
Y68027D01*
X214500Y69169D02*
Y67170D01*
D30*
X182500Y158375D02*
X189137D01*
X240000Y20000D02*
Y50000D01*
X221000Y142000D02*
Y158875D01*
X214275D02*
X221000D01*
X228000D01*
X189500Y137000D02*
Y158375D01*
X195775D01*
X189500Y137000D02*
X192500Y134000D01*
X236000D01*
X240000Y130000D01*
Y50000D02*
Y130000D01*
D31*
X60000Y40000D02*
D03*
D32*
X70000Y30000D02*
D03*
X80000D02*
D03*
X90000D02*
D03*
X100000D02*
D03*
X110000D02*
D03*
X120000D02*
D03*
X130000D02*
D03*
X140000D02*
D03*
X150000D02*
D03*
X160000D02*
D03*
X170000D02*
D03*
X180000D02*
D03*
X190000D02*
D03*
X60000D02*
D03*
X70000Y40000D02*
D03*
X80000D02*
D03*
X90000D02*
D03*
X100000D02*
D03*
X110000D02*
D03*
X120000D02*
D03*
X130000D02*
D03*
X140000D02*
D03*
X150000D02*
D03*
X190000D02*
D03*
X170000D02*
D03*
X160000D02*
D03*
X180000D02*
D03*
D33*
X240000Y50000D02*
D03*
Y20000D02*
D03*
X210000Y50000D02*
D03*
Y20000D02*
D03*
X40000Y50000D02*
D03*
Y20000D02*
D03*
X10000Y50000D02*
D03*
Y20000D02*
D03*
D34*
X12000Y193000D02*
D03*
D35*
Y183000D02*
D03*
Y173000D02*
D03*
Y163000D02*
D03*
Y153000D02*
D03*
D36*
X153500Y195000D02*
D03*
X163500Y194500D02*
D03*
X102647Y108604D02*
D03*
X101542Y119000D02*
D03*
X89000Y76500D02*
D03*
X99142Y124642D02*
D03*
X110000Y120000D02*
D03*
X140500Y137500D02*
D03*
X173732Y142732D02*
D03*
X125000Y22500D02*
D03*
X115000D02*
D03*
X167500Y140945D02*
D03*
X38500Y153500D02*
D03*
X31100D02*
D03*
X115000Y60623D02*
D03*
X30000Y81000D02*
D03*
X26800D02*
D03*
X20400D02*
D03*
X23600D02*
D03*
X92000Y83500D02*
D03*
X73000Y110000D02*
D03*
X93000Y120000D02*
D03*
X85000Y94625D02*
D03*
X7500Y94000D02*
D03*
X23500D02*
D03*
X39500D02*
D03*
X55500D02*
D03*
X93000Y62000D02*
D03*
X186000Y62500D02*
D03*
X136500D02*
D03*
X129500Y66000D02*
D03*
X77000Y57000D02*
D03*
X59000D02*
D03*
X94875Y185000D02*
D03*
X151087Y47587D02*
D03*
X107500Y48500D02*
D03*
X109705Y59795D02*
D03*
X112264Y63736D02*
D03*
X90772Y54272D02*
D03*
X176000Y66000D02*
D03*
X59000Y129000D02*
D03*
Y123000D02*
D03*
X47500Y82500D02*
D03*
X68500Y78500D02*
D03*
X78500Y143500D02*
D03*
X76000Y146800D02*
D03*
X41000Y167500D02*
D03*
X98500Y153000D02*
D03*
X88500Y185000D02*
D03*
X41150Y176150D02*
D03*
X61350D02*
D03*
X70000Y153500D02*
D03*
Y157500D02*
D03*
X121000Y142500D02*
D03*
X121000Y137500D02*
D03*
X125000Y96500D02*
D03*
X129500Y82500D02*
D03*
X176000D02*
D03*
X138000Y69000D02*
D03*
X119000Y123000D02*
D03*
X122500Y150000D02*
D03*
X77000Y75000D02*
D03*
X73000Y150500D02*
D03*
X118500Y96500D02*
D03*
X112500Y123000D02*
D03*
X119500Y85000D02*
D03*
X114500Y89500D02*
D03*
X112264Y82264D02*
D03*
X205000Y166000D02*
D03*
Y175500D02*
D03*
X107500Y150500D02*
D03*
X112000Y149500D02*
D03*
X117000Y195000D02*
D03*
X79000Y162000D02*
D03*
X82500Y183000D02*
D03*
X59000Y82500D02*
D03*
X155000Y115000D02*
D03*
X154250Y121250D02*
D03*
X92000Y140500D02*
D03*
X123000Y125500D02*
D03*
X92500Y144500D02*
D03*
X119000Y128500D02*
D03*
X159500Y158500D02*
D03*
X152000Y162000D02*
D03*
X134854Y170646D02*
D03*
D37*
X221000Y142000D02*
D03*
Y152000D02*
D03*
M02*
