%FSLAX25Y25*%
%MOIN*%
G70*
G01*
G75*
G04 Layer_Physical_Order=4*
G04 Layer_Color=16711680*
%ADD10R,0.05200X0.04250*%
%ADD11R,0.04250X0.05200*%
%ADD12R,0.03150X0.02362*%
%ADD13R,0.03400X0.03100*%
%ADD14R,0.03100X0.03400*%
%ADD15R,0.03200X0.05000*%
%ADD16R,0.04724X0.01181*%
%ADD17R,0.01181X0.04724*%
%ADD18R,0.01772X0.05709*%
%ADD19O,0.01772X0.05709*%
%ADD20R,0.14000X0.08900*%
%ADD21R,0.04700X0.08600*%
%ADD22R,0.04000X0.05500*%
%ADD23R,0.01600X0.03500*%
%ADD24R,0.02992X0.09449*%
%ADD25O,0.02992X0.09449*%
%ADD26C,0.01200*%
%ADD27C,0.02000*%
%ADD28C,0.03000*%
%ADD29C,0.01000*%
%ADD30C,0.03500*%
%ADD31R,0.06000X0.06000*%
%ADD32C,0.06000*%
%ADD33C,0.10000*%
%ADD34R,0.05906X0.05906*%
%ADD35C,0.05906*%
%ADD36C,0.02400*%
%ADD37C,0.03000*%
%ADD38C,0.04000*%
%ADD39C,0.08000*%
G04:AMPARAMS|DCode=40|XSize=120mil|YSize=120mil|CornerRadius=0mil|HoleSize=0mil|Usage=FLASHONLY|Rotation=0.000|XOffset=0mil|YOffset=0mil|HoleType=Round|Shape=Relief|Width=20mil|Gap=10mil|Entries=4|*
%AMTHD40*
7,0,0,0.12000,0.10000,0.02000,45*
%
%ADD40THD40*%
G04:AMPARAMS|DCode=41|XSize=95.433mil|YSize=95.433mil|CornerRadius=0mil|HoleSize=0mil|Usage=FLASHONLY|Rotation=0.000|XOffset=0mil|YOffset=0mil|HoleType=Round|Shape=Relief|Width=20mil|Gap=10mil|Entries=4|*
%AMTHD41*
7,0,0,0.09543,0.07543,0.02000,45*
%
%ADD41THD41*%
%ADD42C,0.07543*%
G04:AMPARAMS|DCode=43|XSize=72mil|YSize=72mil|CornerRadius=0mil|HoleSize=0mil|Usage=FLASHONLY|Rotation=0.000|XOffset=0mil|YOffset=0mil|HoleType=Round|Shape=Relief|Width=20mil|Gap=10mil|Entries=4|*
%AMTHD43*
7,0,0,0.07200,0.05200,0.02000,45*
%
%ADD43THD43*%
%ADD44C,0.05200*%
G04:AMPARAMS|DCode=45|XSize=80mil|YSize=80mil|CornerRadius=0mil|HoleSize=0mil|Usage=FLASHONLY|Rotation=0.000|XOffset=0mil|YOffset=0mil|HoleType=Round|Shape=Relief|Width=20mil|Gap=10mil|Entries=4|*
%AMTHD45*
7,0,0,0.08000,0.06000,0.02000,45*
%
%ADD45THD45*%
D26*
X102647Y108604D02*
X103000Y108251D01*
Y72454D02*
Y108251D01*
X100746Y70200D02*
X103000Y72454D01*
X95700Y70200D02*
X100746D01*
X85000Y59500D02*
X95700Y70200D01*
X85000Y38000D02*
Y59500D01*
Y38000D02*
X88000Y35000D01*
X95000D01*
X100000Y40000D01*
X100000Y117458D02*
X101542Y119000D01*
X100000Y72000D02*
Y117458D01*
X93500Y72000D02*
X100000D01*
X89000Y76500D02*
X93500Y72000D01*
X99142Y124642D02*
X99358D01*
X106500Y117500D01*
X161445Y147000D02*
X167500Y140945D01*
X140500Y137500D02*
X141000Y137000D01*
X168000D01*
X173732Y142732D01*
X125000Y35000D02*
X130000Y40000D01*
X125000Y22500D02*
Y35000D01*
X115000D02*
X120000Y40000D01*
X115000Y22500D02*
Y35000D01*
X36000Y74000D02*
X70000Y40000D01*
X33600Y67900D02*
X60000Y41500D01*
Y40000D02*
Y41500D01*
X98500Y48500D02*
X107500D01*
X90000Y40000D02*
X98500Y48500D01*
X20400Y11918D02*
Y81000D01*
X23600Y12112D02*
Y81000D01*
X26800Y12306D02*
X31506Y7600D01*
X30000Y12500D02*
X32500Y10000D01*
X30000Y12500D02*
Y81000D01*
X26800Y12306D02*
Y81000D01*
X160000Y40000D02*
X165000Y35000D01*
Y20000D02*
Y35000D01*
X170000Y40000D02*
X175000Y35000D01*
Y20000D02*
Y35000D01*
X190000Y40000D02*
X195000Y35000D01*
Y20000D02*
Y35000D01*
X180000Y40000D02*
X185000Y35000D01*
Y20000D02*
Y35000D01*
X20400Y11918D02*
X29518Y2800D01*
X23600Y12112D02*
X30512Y5200D01*
X170200D01*
X31506Y7600D02*
X162600D01*
X29518Y2800D02*
X177800D01*
X195000Y20000D01*
X170200Y5200D02*
X185000Y20000D01*
X162600Y7600D02*
X175000Y20000D01*
X32500Y10000D02*
X155000D01*
X165000Y20000D01*
X85000Y112000D02*
X93000Y120000D01*
X85000Y94625D02*
Y112000D01*
X49300Y85700D02*
Y136300D01*
X56500Y143500D01*
X47500Y82500D02*
Y137046D01*
X55754Y145300D01*
X74500D01*
X49300Y85700D02*
X56500Y78500D01*
X68500D01*
X56500Y143500D02*
X56500Y143500D01*
X78500D01*
X74500Y145300D02*
X76000Y146800D01*
X33600Y67900D02*
Y151000D01*
X31100Y153500D02*
X33600Y151000D01*
X36000Y74000D02*
Y151000D01*
X38500Y153500D01*
X119500Y141000D02*
X121000Y142500D01*
X119500Y139000D02*
X121000Y137500D01*
X122500Y150000D02*
X131000Y158500D01*
X112400Y91600D02*
Y122900D01*
X112500Y123000D01*
X110000Y120000D02*
X110600Y119400D01*
Y87900D02*
Y119400D01*
X112400Y91600D02*
X114500Y89500D01*
X110600Y87900D02*
X113500Y85000D01*
X119500D01*
X106500Y88028D02*
Y117500D01*
Y88028D02*
X112264Y82264D01*
X98500Y153000D02*
X104500Y147000D01*
X161445D01*
X107500Y150500D02*
Y166000D01*
X112000Y149500D02*
Y158000D01*
X82500Y183000D02*
X99500Y166000D01*
X107500D01*
X70000Y157500D02*
X88000D01*
X104500Y141000D01*
X119500D01*
X70000Y153500D02*
X88500D01*
X103000Y139000D01*
X119500D01*
X92000Y140500D02*
X107000Y125500D01*
X123000D01*
X92500Y144500D02*
X108500Y128500D01*
X119000D01*
X131000Y158500D02*
X159500D01*
X112000Y158000D02*
X116000Y162000D01*
X152000D01*
X112146Y170646D02*
X134854D01*
X107500Y166000D02*
X112146Y170646D01*
D27*
X122500Y62500D02*
X136500D01*
X117500Y67500D02*
X122500Y62500D01*
X95500Y62000D02*
X101000Y67500D01*
X93000Y62000D02*
X95500D01*
X136500Y62500D02*
X186000D01*
X42500Y78000D02*
Y166000D01*
X41000Y167500D02*
X42500Y166000D01*
X186000Y62500D02*
X227500D01*
X240000Y50000D01*
X42500Y78000D02*
X45500Y75000D01*
X77000D01*
X101000Y67500D02*
X117500D01*
D29*
X115000Y60623D02*
X116377D01*
X129500Y47500D01*
X135000Y45000D02*
X140000Y40000D01*
X124000Y45000D02*
X135000D01*
X112600Y56400D02*
X124000Y45000D01*
X112600Y56400D02*
Y63400D01*
X112264Y63736D02*
X112600Y63400D01*
X142500Y47500D02*
X150000Y40000D01*
X129500Y47500D02*
X142500D01*
X111000Y41000D02*
Y56000D01*
X109705Y57295D02*
X111000Y56000D01*
X109705Y57295D02*
Y59795D01*
X138000Y69000D02*
Y104000D01*
X119000Y123000D02*
X138000Y104000D01*
X151087Y47587D02*
X155000Y43673D01*
Y35000D02*
Y43673D01*
X150000Y30000D02*
X155000Y35000D01*
D31*
X60000Y40000D02*
D03*
D32*
X70000Y30000D02*
D03*
X80000D02*
D03*
X90000D02*
D03*
X100000D02*
D03*
X110000D02*
D03*
X120000D02*
D03*
X130000D02*
D03*
X140000D02*
D03*
X150000D02*
D03*
X160000D02*
D03*
X170000D02*
D03*
X180000D02*
D03*
X190000D02*
D03*
X60000D02*
D03*
X70000Y40000D02*
D03*
X80000D02*
D03*
X90000D02*
D03*
X100000D02*
D03*
X110000D02*
D03*
X120000D02*
D03*
X130000D02*
D03*
X140000D02*
D03*
X150000D02*
D03*
X190000D02*
D03*
X170000D02*
D03*
X160000D02*
D03*
X180000D02*
D03*
D33*
X240000Y50000D02*
D03*
Y20000D02*
D03*
X210000Y50000D02*
D03*
Y20000D02*
D03*
X40000Y50000D02*
D03*
Y20000D02*
D03*
X10000Y50000D02*
D03*
Y20000D02*
D03*
D34*
X12000Y193000D02*
D03*
D35*
Y183000D02*
D03*
Y173000D02*
D03*
Y163000D02*
D03*
Y153000D02*
D03*
D36*
X153500Y195000D02*
D03*
X163500Y194500D02*
D03*
X102647Y108604D02*
D03*
X101542Y119000D02*
D03*
X89000Y76500D02*
D03*
X99142Y124642D02*
D03*
X110000Y120000D02*
D03*
X140500Y137500D02*
D03*
X173732Y142732D02*
D03*
X125000Y22500D02*
D03*
X115000D02*
D03*
X167500Y140945D02*
D03*
X38500Y153500D02*
D03*
X31100D02*
D03*
X115000Y60623D02*
D03*
X30000Y81000D02*
D03*
X26800D02*
D03*
X20400D02*
D03*
X23600D02*
D03*
X92000Y83500D02*
D03*
X73000Y110000D02*
D03*
X93000Y120000D02*
D03*
X85000Y94625D02*
D03*
X7500Y94000D02*
D03*
X23500D02*
D03*
X39500D02*
D03*
X55500D02*
D03*
X93000Y62000D02*
D03*
X186000Y62500D02*
D03*
X136500D02*
D03*
X129500Y66000D02*
D03*
X77000Y57000D02*
D03*
X59000D02*
D03*
X94875Y185000D02*
D03*
X151087Y47587D02*
D03*
X107500Y48500D02*
D03*
X109705Y59795D02*
D03*
X112264Y63736D02*
D03*
X90772Y54272D02*
D03*
X176000Y66000D02*
D03*
X59000Y129000D02*
D03*
Y123000D02*
D03*
X47500Y82500D02*
D03*
X68500Y78500D02*
D03*
X78500Y143500D02*
D03*
X76000Y146800D02*
D03*
X41000Y167500D02*
D03*
X98500Y153000D02*
D03*
X88500Y185000D02*
D03*
X41150Y176150D02*
D03*
X61350D02*
D03*
X70000Y153500D02*
D03*
Y157500D02*
D03*
X121000Y142500D02*
D03*
X121000Y137500D02*
D03*
X125000Y96500D02*
D03*
X129500Y82500D02*
D03*
X176000D02*
D03*
X138000Y69000D02*
D03*
X119000Y123000D02*
D03*
X122500Y150000D02*
D03*
X77000Y75000D02*
D03*
X73000Y150500D02*
D03*
X118500Y96500D02*
D03*
X112500Y123000D02*
D03*
X119500Y85000D02*
D03*
X114500Y89500D02*
D03*
X112264Y82264D02*
D03*
X205000Y166000D02*
D03*
Y175500D02*
D03*
X107500Y150500D02*
D03*
X112000Y149500D02*
D03*
X117000Y195000D02*
D03*
X79000Y162000D02*
D03*
X82500Y183000D02*
D03*
X59000Y82500D02*
D03*
X155000Y115000D02*
D03*
X154250Y121250D02*
D03*
X92000Y140500D02*
D03*
X123000Y125500D02*
D03*
X92500Y144500D02*
D03*
X119000Y128500D02*
D03*
X159500Y158500D02*
D03*
X152000Y162000D02*
D03*
X134854Y170646D02*
D03*
D37*
X221000Y142000D02*
D03*
Y152000D02*
D03*
M02*
